<?xml version="1.0" encoding="UTF-8" standalone="no"?>
<svg
   xmlns:dc="http://purl.org/dc/elements/1.1/"
   xmlns:cc="http://creativecommons.org/ns#"
   xmlns:rdf="http://www.w3.org/1999/02/22-rdf-syntax-ns#"
   xmlns:svg="http://www.w3.org/2000/svg"
   xmlns="http://www.w3.org/2000/svg"
   xmlns:xlink="http://www.w3.org/1999/xlink"
   xmlns:sodipodi="http://sodipodi.sourceforge.net/DTD/sodipodi-0.dtd"
   xmlns:inkscape="http://www.inkscape.org/namespaces/inkscape"
   width="1094.8164"
   height="1071.1356"
   viewBox="0 0 875.85312 856.9085"
   version="1.1"
   id="svg3363"
   inkscape:version="0.48.2 r9819"
   sodipodi:docname="pyrforos_big_simplified.svg">
  <metadata
     id="metadata3739">
    <rdf:RDF>
      <cc:Work
         rdf:about="">
        <dc:format>image/svg+xml</dc:format>
        <dc:type
           rdf:resource="http://purl.org/dc/dcmitype/StillImage" />
        <dc:title />
      </cc:Work>
    </rdf:RDF>
  </metadata>
  <defs
     id="defs3737">
    <linearGradient
       id="linearGradient4117">
      <stop
         style="stop-color:#000000;stop-opacity:0;"
         offset="0"
         id="stop4119" />
      <stop
         style="stop-color:#000000;stop-opacity:1;"
         offset="1"
         id="stop4121" />
    </linearGradient>
    <radialGradient
       inkscape:collect="always"
       xlink:href="#linearGradient4117"
       id="radialGradient4123"
       cx="156.64288"
       cy="488.75912"
       fx="156.64288"
       fy="488.75912"
       r="368.57855"
       gradientUnits="userSpaceOnUse" />
  </defs>
  <sodipodi:namedview
     pagecolor="#ffffff"
     bordercolor="#666666"
     borderopacity="1"
     objecttolerance="10"
     gridtolerance="10"
     guidetolerance="10"
     inkscape:pageopacity="0"
     inkscape:pageshadow="2"
     inkscape:window-width="1280"
     inkscape:window-height="1002"
     id="namedview3735"
     showgrid="false"
     inkscape:zoom="0.54846712"
     inkscape:cx="520.38905"
     inkscape:cy="548.58167"
     inkscape:window-x="-8"
     inkscape:window-y="-8"
     inkscape:window-maximized="1"
     inkscape:current-layer="svg3363"
     fit-margin-top="0"
     fit-margin-left="0"
     fit-margin-right="0"
     fit-margin-bottom="0" />
  <path
     sodipodi:type="arc"
     style="opacity:0.4;fill:url(#radialGradient4123);fill-opacity:1;fill-rule:evenodd;stroke:#000000;stroke-width:1px;stroke-linecap:butt;stroke-linejoin:miter;stroke-opacity:1"
     id="path3333-1"
     sodipodi:cx="156.64288"
     sodipodi:cy="488.75912"
     sodipodi:rx="368.07855"
     sodipodi:ry="368.07855"
     d="m 524.72144,488.75912 a 368.07855,368.07855 0 1 1 -736.15711,0 368.07855,368.07855 0 1 1 736.15711,0 z"
     transform="matrix(1.1030445,0,0,1.1104423,296.50869,-96.572237)" />
  <path
     sodipodi:type="arc"
     style="fill:#000000;fill-rule:evenodd;stroke:#000000;stroke-width:1px;stroke-linecap:butt;stroke-linejoin:miter;stroke-opacity:1"
     id="path3333"
     sodipodi:cx="156.64288"
     sodipodi:cy="488.75912"
     sodipodi:rx="368.07855"
     sodipodi:ry="368.07855"
     d="m 524.72144,488.75912 a 368.07855,368.07855 0 1 1 -736.15711,0 368.07855,368.07855 0 1 1 736.15711,0 z"
     transform="matrix(1.1030445,0,0,1.1104423,233.77632,-133.45544)" />
  <path
     sodipodi:type="arc"
     style="fill:#ffffff"
     id="path3335"
     sodipodi:cx="145.86107"
     sodipodi:cy="480.47641"
     sodipodi:rx="371.94571"
     sodipodi:ry="398.38306"
     d="m 517.80678,480.47641 a 371.94571,398.38306 0 1 1 -743.89142,0 371.94571,398.38306 0 1 1 743.89142,0 z"
     transform="matrix(1.0411766,0,0,0.98123569,252.51748,-61.759299)" />
  <path
     d="m 371.19985,28.850886 c 7.75,-3.36 16.4,-0.53 24.39,-2.54 1.49,-0.37 3.02,-0.03 4.52,0.08 0.05,1.37 0.08,2.74 0.09,4.11 -2.86,0.87 -5.74,1.9 -8.78,1.58 -3.97,-0.29 -7.77,1.06 -11.71,1.24 -1.87,0.76 -1.2,2.8 -0.89,4.3 1.35,4.51 -0.17,9.33 1.22,13.83 0.63,2.47 0.22,5.05 0.47,7.56 1.11,5.64 1.73,11.77 -0.05,17.32 -1.26,-0.39 -3.39,0.09 -3.75,-1.63 -2.03,-10.95 -1.24,-22.19 -2.72,-33.22 -0.69,-2.43 -0.62,-4.97 -0.67,-7.47 -2.71,-0.1 -5.36,0.42 -7.98,1 -3.59,0.16 -7.19,0.12 -10.78,0.04 -1.43,0.1 -2.59,-1.45 -2.11,-2.81 2.17,-1.88 5.2,-1.98 7.92,-2.13 3.66,0.04 7.17,-1.16 10.83,-1.26 z"
     id="path3371"
     inkscape:connector-curvature="0"
     style="fill:#0b0b0b" />
  <path
     d="m 418.46985,30.130886 c 4.66,-0.06 9.38,-0.41 13.94,0.82 6.95,0.35 13.92,-0.06 20.87,0.2 1.76,0.54 3.38,1.46 5.08,2.19 0.04,0.73 0.12,2.2 0.15,2.93 -2.25,0.89 -4.68,0.91 -7.05,0.83 -4.11,-0.14 -8.3,0.43 -12.29,-0.77 -4.56,-0.55 -9.18,-0.11 -13.76,-0.25 0.54,5.28 -0.85,10.43 -0.98,15.67 0.32,0.29 0.97,0.87 1.3,1.15 6.82,0.49 13.68,-0.09 20.51,0.29 3.19,0.69 6.44,1 9.71,1.17 0.23,1.53 0.45,3.06 0.65,4.6 -6.42,-0.04 -12.98,0.83 -19.28,-0.78 -4.27,-0.21 -8.56,-0.07 -12.84,-0.05 0.19,4.29 -0.76,8.59 0.04,12.86 6.66,0.43 13.43,-0.64 19.98,0.95 3.88,-1.49 7.73,0.32 11.4,1.59 -1.36,2.11 -3.06,4.11 -5.78,4.13 -3.24,0.13 -6.48,-1.02 -9.7,0 -6.23,-1.18 -12.59,-0.19 -18.87,-0.69 -1.26,-0.36 -2.48,-0.88 -3.61,-1.54 -1.19,-3.78 -0.22,-7.79 0.23,-11.62 0.32,-11.21 0.18,-22.45 0.3,-33.68 z"
     id="path3373"
     inkscape:connector-curvature="0"
     style="fill:#0b0b0b" />
  <path
     d="m 336.78985,30.940886 c 1.1,0.16 2.21,0.33 3.32,0.5 0.36,2.61 0.59,5.34 -0.51,7.81 -2.53,6.83 -4.36,13.89 -6.07,20.95 -0.11,3.73 -2.15,7.06 -2.19,10.8 -0.03,1.96 -1.22,3.59 -2.05,5.28 -4.26,0.15 -7.32,-3.72 -8.72,-7.35 -4.13,-4.23 -7.86,-8.83 -11.97,-13.09 -3.76,-4.04 -6.68,-8.97 -11.3,-12.12 0.13,-1.47 0.29,-2.94 0.48,-4.4 1.07,-0.1 2.15,-0.14 3.23,-0.14 3.48,3.63 7.75,6.75 9.84,11.47 5.39,5.82 11.49,11.17 15.67,18.03 3.08,-3.78 2.25,-9.18 3.89,-13.61 2.8,-7.89 3.26,-16.36 6.38,-24.13 z"
     id="path3375"
     inkscape:connector-curvature="0"
     style="fill:#0b0b0b" />
  <path
     d="m 485.55985,36.090886 c 0.72,-0.01 2.16,-0.02 2.88,-0.03 3.24,7.45 4.62,15.48 6.96,23.21 3.63,-1.61 5.85,-5.04 9.04,-7.26 3.9,-2.76 6.65,-6.87 10.7,-9.46 0.64,0.48 1.94,1.44 2.59,1.92 -0.72,1.8 -0.87,4.15 -2.71,5.21 -3.64,2.31 -6.03,6.11 -9.79,8.25 -2.92,1.73 -5.4,4.04 -8.11,6.06 0.75,3.02 2.03,5.92 2.31,9.04 0.86,6.83 2.96,13.39 4.74,20.01 -0.96,0.84 -1.92,1.68 -2.88,2.52 -3.36,-2.23 -3.09,-6.5 -4.48,-9.87 -1.79,-4.87 -2.36,-10.1 -4.45,-14.85 -6.81,5.47 -13.01,11.91 -20.99,15.67 -0.59,-1.98 -2.1,-4.7 0.19,-6.19 5.89,-5.67 12.76,-10.2 18.92,-15.58 -1.95,-6.16 -3.32,-12.48 -4.97,-18.72 -0.11,-2.22 -1.17,-4.15 -2.23,-6.04 0.76,-1.29 1.5,-2.6 2.28,-3.89 z"
     id="path3377"
     inkscape:connector-curvature="0"
     style="fill:#0b0b0b" />
  <path
     d="m 268.51985,55.240886 c 0.35,-2.37 2.06,-4.09 3.76,-5.62 3.47,5.3 8.98,8.82 12.56,14.02 1.92,2.71 4.73,4.66 6.56,7.44 3.12,4.51 7.93,7.47 11.27,11.79 1.32,1.33 0.45,3.27 0.44,4.89 -1.13,0.12 -2.25,0.19 -3.37,0.19 -3.69,-2.77 -5.52,-7.27 -9.4,-9.8 -4.66,-5.87 -9.55,-11.54 -15.09,-16.6 -0.73,1.08 -1.94,2.07 -1.8,3.52 -0.12,14.01 0.01,28.02 -0.05,42.030004 0.19,2.07 -1.9,3.13 -3.03,4.52 -4.67,-3.09 -2.67,-8.89 -2.04,-13.420004 -0.04,-5.41 0.59,-10.92 -0.6,-16.24 1.37,-8.79 0.27,-17.83 0.79,-26.72 z"
     id="path3379"
     inkscape:connector-curvature="0"
     style="fill:#0b0b0b" />
  <path
     d="m 528.22985,76.890886 c 4.72,-5.76 7.47,-13.15 13.24,-18.02 3.11,0.13 3.91,3.62 3.95,6.16 0,8.69 -0.04,17.37 0,26.06 -0.02,2.27 0.96,4.39 1.5,6.56 5.03,-4 8.84,-9.38 14.47,-12.64 3.91,-4.44 8.22,-8.58 12.23,-12.95 1.65,0.01 3.31,0.06 4.97,0.13 -0.03,2.19 -0.39,4.44 -2,6.07 -3.45,3.51 -5.66,8.78 -10.71,10.27 -6.62,4.98 -12.1,11.33 -18.47,16.580004 -1.48,1.5 -4.55,1.42 -5.05,-0.95 -1.4,-3.84 -2.06,-8.020004 -1.95,-12.110004 0.26,-4.18 -2.11,-8.31 -0.39,-12.43 1,-2.16 -0.42,-4.16 -1.23,-6.1 -6.07,5.44 -9.39,13.14 -14.65,19.28 -2.8,2.99 -4.81,6.64 -7.76,9.500004 -3.23,-0.21 -3.71,-4.810004 -1.61,-6.860004 5.28,-5.59 8.76,-12.52 13.46,-18.55 z"
     id="path3381"
     inkscape:connector-curvature="0"
     style="fill:#0b0b0b" />
  <path
     d="m 227.83985,70.460886 c 8.93,-2.22 17.44,3.67 23.22,9.99 2.56,4.78 4.78,10.1 4.4,15.62 -0.31,8.120004 -4.58,16.220004 -11.69,20.370004 -4.08,2.2 -8.79,4.4 -13.45,2.77 -10.96,0.49 -19.38,-9.31 -21.9,-19.14 -0.17,-5.560004 -0.47,-11.420004 2.62,-16.340004 2.9,-7.08 10.31,-10.27 16.8,-13.27 z"
     id="path3383"
     inkscape:connector-curvature="0"
     style="fill:#0b0b0b" />
  <path
     d="m 219.66985,80.300886 c 3.17,-2.22 6.97,-3.48 10.76,-4.22 4.23,0.27 7.53,3.76 11.87,3.09 2.1,2.67 3.49,5.82 5.7,8.41 1.26,5.24 2.55,11.03 0.05,16.120004 -3.88,4.2 -7.95,9.11 -13.86,10.25 -4.39,0.76 -8.68,-1.08 -12.41,-3.21 -4.55,-3.9 -9.5,-9.16 -8.38,-15.660004 -0.91,-5.73 2.75,-10.69 6.27,-14.78 z"
     id="path3385"
     inkscape:connector-curvature="0"
     style="fill:#fbfbfb" />
  <path
     d="m 575.47985,101.11089 c 4.4,-6.010004 7.63,-13.050004 13.17,-18.120004 1.38,-0.43 2.49,0.46 3.47,1.33 3.05,2.88 7.51,3.58 10.56,6.49 2.13,2.21 5.65,2.12 7.85,4.1 2.92,4.47 9.28,4.08 12.39,8.390004 -0.54,0.94 -1.14,1.84 -1.8,2.7 -3.68,0.56 -6.93,-1.93 -9.87,-3.8 -2.7,-2.480004 -6.42,-3.380004 -9.14,-5.820004 -3.26,-2.82 -7.42,-4.19 -10.95,-6.59 -3.18,3.34 -6.47,7.28 -7,12.000004 8.65,5.37 16.95,11.46 26.26,15.67 0,1.1 0.01,2.21 0.02,3.32 -1,0.86 -1.99,1.73 -2.97,2.59 -8.98,-5.88 -17.82,-11.97 -27.09,-17.38 -3.7,3.14 -5.35,8.37 -8.26,12.32 4.95,4.91 11.17,8.22 16.79,12.27 3.88,2.46 9.75,3.92 9.78,9.52 -1.61,-0.13 -3.32,0.29 -4.84,-0.32 -5.78,-4.92 -12.79,-8.01 -19.17,-12.02 -3.64,-2.13 -6.83,-4.93 -10.5,-7 -0.1,-2.97 1.96,-5.18 3.25,-7.67 2.38,-4.19 5.72,-7.75 8.05,-11.98 z"
     id="path3387"
     inkscape:connector-curvature="0"
     style="fill:#0b0b0b" />
  <path
     d="m 182.38985,102.01089 c 3.35,-1.84 5.61,-5.650004 9.61,-6.250004 2.7,4.750004 6.97,8.390004 9.52,13.250004 3.17,4.44 6.26,8.98 10.06,12.92 1.22,2.76 4.1,4.41 4.5,7.57 1.2,2.18 -0.56,3.99 -1.79,5.62 -1.19,-0.76 -2.63,-1.19 -3.61,-2.24 -5.1,-6.59 -9.74,-13.57 -15.23,-19.85 -1.76,-2.6 -3.49,-5.24 -5.89,-7.3 -5.31,4.17 -11.09,7.77 -15.97,12.46 -3.1,2.62 -7.38,4.22 -9.25,8.02 3.16,8.94 11.23,14.98 15.77,23.16 2.01,3.87 5.06,7.02 7.36,10.7 1.56,2.44 4.28,4.65 3.99,7.81 -0.56,1.25 -1.52,2.26 -2.29,3.38 -9.86,-7.54 -13.81,-19.9 -22.16,-28.78 -2.23,-2.2 -3.21,-5.34 -5.6,-7.38 -3.04,-2.95 -5.19,-6.66 -7.32,-10.27 2.36,-2.91 5.64,-4.55 8.95,-6.11 2.5,-2.86 5.43,-5.3 8.51,-7.52 3.77,-2.89 6.31,-7.34 10.84,-9.19 z"
     id="path3389"
     inkscape:connector-curvature="0"
     style="fill:#0b0b0b" />
  <path
     d="m 399.42985,109.11089 c 2.78,0.25 5.02,-1.64 6.99,-3.31 2.13,1.32 4.05,3 6.38,3.98 2.56,0.86 5.28,0 7.73,-0.85 3.38,1.4 5.21,4.53 7.26,7.36 1.54,-0.41 3.08,-0.87 4.6,-1.37 1.71,1.36 3.72,2.36 5.25,3.94 2.2,4.12 4.17,8.44 4.88,13.11 1.57,5.88 1.22,12.84 -2.52,17.81 -7.14,3.28 -15.36,0.21 -22.6,-1.49 0.07,3.24 -0.09,6.49 0.09,9.73 0.56,3.63 2.11,7.09 2.05,10.83 -2.14,1.76 -4.51,3.46 -7.41,3.46 1.39,-5.16 3.39,-10.49 1.92,-15.87 -1.4,-3.01 -3.13,-5.89 -4.04,-9.11 -2.04,-0.36 -4.1,-1.83 -6.18,-0.92 -3.52,1.32 -7.12,2.41 -10.79,3.19 -2.19,1.59 -4.87,1.77 -7.48,1.46 -3.51,-1.91 -7.03,-3.94 -9.69,-6.99 1.19,-0.74 2.39,-1.46 3.58,-2.21 1.74,1.02 3.33,2.27 5.13,3.17 7.17,0.76 13.71,-3.38 20.73,-3.95 1.72,0.25 3.37,1 5.15,0.96 9,-0.01 17.56,3.91 26.62,3.04 0.52,-1.47 1.89,-2.74 1.67,-4.39 -0.09,-4.76 -0.34,-9.83 -3.06,-13.91 -2.94,-2.73 -7.06,-3.58 -10.49,-5.53 -6.25,0.08 -12.1,-2.35 -18.31,-2.74 -7.7,0.95 -15.15,3.07 -22.48,5.55 -7.72,3.07 -12.86,9.9 -17.78,16.25 -2.19,1.95 -2.87,4.98 -4.9,7.04 -1.32,0.89 -2.77,1.58 -4.29,2.04 -3.29,-1.43 -3.27,-5 -3.1,-8.05 1.57,-1.3 3.23,-2.47 4.96,-3.54 0.1,-3.48 -0.32,-7.16 1.67,-10.23 2.86,-0.63 5.9,-0.67 8.37,-2.53 -0.27,-4.1 0.24,-8.76 3.45,-11.63 4.59,-3.54 10.11,0.95 15.05,-0.63 1.23,-1.6 2.42,-3.25 3.92,-4.62 2.62,-0.49 5.02,1.32 7.67,0.95 z"
     id="path3391"
     inkscape:connector-curvature="0"
     style="fill:#0b0b0b" />
  <path
     d="m 295.63985,112.95089 c 0.51,-1.23 0.51,-3.54 2.43,-2.87 3.64,7.4 4.8,15.66 8.23,23.13 1.38,4.37 2.11,8.92 2.49,13.48 4.66,-4.92 0.51,-14.13 6.75,-18.38 3.02,4 1.59,9.17 1.85,13.8 -0.96,5.13 -0.89,10.43 -2.55,15.44 -0.8,4.27 -1.86,8.63 -1.08,12.99 -0.76,4.3 0.22,8.74 -0.95,12.98 -0.36,1.62 -0.7,3.37 -0.19,5 4.26,3.25 8.62,6.98 10.17,12.26 3.93,3.67 5.6,8.87 8.83,13.08 3.56,6.23 6.49,12.82 9.79,19.2 2.81,5.02 3.64,10.81 6,16.02 2.37,5.29 3.79,10.97 6.45,16.14 4.76,0.14 7.88,-4.17 12.23,-5.47 4.76,-0.97 10.88,0.72 14.54,-3.38 1.99,-2.45 4.74,-4.36 5.54,-7.57 2.33,-2.41 6.01,-3.27 7.73,-6.3 2.18,-3.64 6.09,-5.39 9.65,-7.35 9.13,-1.31 17.36,3.66 25.04,7.89 5.92,0.5 11.58,-1.84 17.43,-2.36 9.95,-3 20.38,-2.7 30.67,-2.62 -0.24,1.96 -0.38,4.02 -1.6,5.67 -4.78,3.62 -11.11,3.92 -16.34,6.69 -3.72,2.13 -7.98,3.08 -11.55,5.46 -5.12,3.4 -11.12,5.23 -15.98,9.03 -2.69,2.25 -6.46,2.57 -9.03,4.95 -4.66,3.88 -11.31,3.41 -16.16,6.92 -4.52,0.73 -9.03,1.49 -13.62,1.45 -4.24,1.17 -8.62,0.75 -12.94,0.93 -3.33,0.74 -6.71,1.66 -9.68,3.38 -3.76,2.68 -8.36,3.96 -11.78,7.15 -3.6,1.74 -6.62,4.32 -9.66,6.86 -0.79,-0.83 -1.57,-1.66 -2.34,-2.5 1.23,-1.74 2.41,-3.58 4.43,-4.49 1.05,-5.89 -5.01,-8.67 -8.92,-11.58 -6.44,-4.02 -9.83,-11.08 -13.68,-17.32 -2.05,-3.85 -4.7,-7.33 -6.99,-11.03 -0.64,3.98 0.89,7.96 0.92,11.98 4.08,6.1 6.6,13.15 11.24,18.88 1.95,2.75 4.43,5.09 6.15,8.01 0.6,1.91 0.77,5.36 -1.94,5.58 -2.78,0.67 -4.38,-2.11 -5.97,-3.86 -1.58,-2.39 -3.66,-4.35 -5.52,-6.51 -2.13,-3.98 -4.09,-8.07 -5.59,-12.33 -1.6,-4.91 -4.94,-9.15 -5.68,-14.35 -1.62,-8.68 -5.69,-17.03 -5.05,-26.01 0.12,-4.04 -2.21,-7.65 -2.26,-11.7 -2.5,-6.93 -4.02,-14.4 -8.73,-20.26 -1.78,-3.69 -6.81,-3.8 -8.74,-7.28 -0.32,-4.66 -2.49,-9.01 -2.3,-13.71 0.09,-2.7 -1.16,-5.24 -0.97,-7.95 0.36,-5.05 -1.02,-9.97 -2.21,-14.83 -3.11,-7.48 -8.46,-13.68 -12.37,-20.72 -0.9,-2.15 -1.11,-4.59 -0.22,-6.79 1.78,1.62 3.3,3.48 4.69,5.43 3.84,4.38 7.86,8.81 10.1,14.28 0.81,-8.08 -3.68,-15.11 -7.82,-21.6 -1.29,-1.62 -1.28,-3.77 -1.88,-5.66 0.43,-0.4 1.28,-1.2 1.7,-1.6 2.53,2.62 5.76,4.85 7.04,8.42 1.42,3.79 3.47,7.33 5.9,10.56 0.75,-5.52 -2.54,-10.37 -3.94,-15.5 -0.76,-3.01 -1.54,-6.01 -2.22,-9.04 0.74,0.01 2.22,0.03 2.96,0.04 3.6,8.29 6.62,16.82 9.97,25.22 0.54,0.29 1.62,0.87 2.17,1.16 0.49,-3.99 -0.62,-7.91 -1.51,-11.76 -1.77,-4.75 -2.1,-9.85 -3.13,-14.78 z"
     id="path3393"
     inkscape:connector-curvature="0"
     style="fill:#0b0b0b" />
  <path
     d="m 635.62985,110.08089 c 1.62,0 3.25,-0.01 4.89,-0.02 0.36,1.25 1.05,2.49 0.92,3.84 -3.89,7.24 -10.1,12.75 -14.74,19.48 -4.09,6.21 -9.01,11.79 -13.66,17.58 -2.25,0.76 -3.61,-1.37 -5,-2.69 4.34,-6.72 8.98,-13.25 14.06,-19.43 4.16,-6.47 9,-12.51 13.53,-18.76 z"
     id="path3395"
     inkscape:connector-curvature="0"
     style="fill:#0b0b0b" />
  <path
     d="m 406.83985,122.90089 c 1.03,1.1 2.06,2.19 3.09,3.29 -1.55,2.44 -4.38,2.38 -6.03,0.1 0.97,-1.14 1.96,-2.26 2.94,-3.39 z"
     id="path3397"
     inkscape:connector-curvature="0"
     style="fill:#0b0b0b" />
  <path
     d="m 396.09985,123.94089 c 1.9,-0.08 3.74,0.24 4.67,2.1 -0.77,0.93 -1.57,1.84 -2.39,2.73 -1.28,-1.35 -2.03,-3 -2.28,-4.83 z"
     id="path3399"
     inkscape:connector-curvature="0"
     style="fill:#0b0b0b" />
  <path
     d="m 414.07985,127.00089 c 0.68,-0.81 1.43,-1.56 2.24,-2.25 0.9,0.7 1.79,1.44 2.66,2.2 -0.88,0.9 -1.76,1.79 -2.65,2.68 -0.78,-0.85 -1.53,-1.73 -2.25,-2.63 z"
     id="path3401"
     inkscape:connector-curvature="0"
     style="fill:#0b0b0b" />
  <path
     d="m 388.42985,125.85089 c 1.53,0.18 3.82,0.27 4.09,2.23 -0.19,1.93 -2.66,1.92 -4.1,2.24 -0.02,-1.49 -0.01,-2.98 0.01,-4.47 z"
     id="path3403"
     inkscape:connector-curvature="0"
     style="fill:#0b0b0b" />
  <path
     d="m 423.56985,126.77089 c 1.99,0.26 3.93,0.87 4.25,3.16 -1.49,0.09 -2.97,0.16 -4.45,0.23 0.05,-0.85 0.15,-2.55 0.2,-3.39 z"
     id="path3405"
     inkscape:connector-curvature="0"
     style="fill:#0b0b0b" />
  <path
     d="m 379.69985,132.07089 c 1.18,-1.05 2.43,-2.05 4.03,-2.36 -0.35,1.55 -0.76,3.1 -1.21,4.63 -0.95,-0.75 -1.89,-1.51 -2.82,-2.27 z"
     id="path3407"
     inkscape:connector-curvature="0"
     style="fill:#0b0b0b" />
  <path
     d="m 430.79985,131.20089 c 1.02,-0.96 3.46,0.19 2.44,1.63 -0.94,1.12 -3.29,-0.35 -2.44,-1.63 z"
     id="path3409"
     inkscape:connector-curvature="0"
     style="fill:#0b0b0b" />
  <path
     d="m 640.89985,132.16089 c 6.36,-0.52 12.76,-1.92 19.16,-0.76 10.75,3.05 18.68,13.63 19.34,24.72 -0.71,6.47 -2.44,13.13 -6.9,18.09 -3.93,2.61 -7.88,5.51 -12.64,6.33 -12.49,3.12 -27.63,-3.96 -31.16,-16.81 -3.75,-9.37 0.31,-20.33 7.8,-26.6 1.76,-1.36 3.34,-2.99 4.4,-4.97 z"
     id="path3411"
     inkscape:connector-curvature="0"
     style="fill:#0b0b0b" />
  <path
     d="m 648.79985,137.49089 c 5.64,-1.21 12.11,-0.39 16.35,3.88 4.31,4.67 8.17,10.84 7.08,17.47 -0.98,3 -1.64,6.15 -3.15,8.94 -2.68,3.03 -5.97,5.82 -9.82,7.18 -5.62,0.01 -12.27,1.34 -16.71,-3.02 -8.42,-4.9 -10.6,-17.3 -5.69,-25.38 2.2,-4.78 7.41,-7.04 11.94,-9.07 z"
     id="path3413"
     inkscape:connector-curvature="0"
     style="fill:#fbfbfb" />
  <path
     d="m 314.59985,140.33089 c 0.63,0.63 0.63,0.63 0,0 z"
     id="path3415"
     inkscape:connector-curvature="0"
     style="fill:#fbfbfb" />
  <path
     d="m 290.61985,144.29089 c 0.62,0.64 0.62,0.64 0,0 z"
     id="path3417"
     inkscape:connector-curvature="0"
     style="fill:#fbfbfb" />
  <path
     d="m 245.86985,157.57089 c 2.96,-3.2 4.21,-7.48 6.54,-11.1 0.15,3.69 -0.45,7.48 0.63,11.07 1.46,4.18 -1.88,7.85 -4.15,10.99 -2.27,4.15 -7.36,5.22 -10.4,8.58 -3.08,4.35 -5.43,9.27 -6.42,14.54 -4.13,5.43 -6.57,11.89 -10.91,17.18 -2.75,4.4 -7.01,7.51 -10,11.72 0.44,-3.55 3.48,-5.93 4.41,-9.31 3,-8.84 7.11,-17.62 6.84,-27.17 -0.45,-4.05 1.53,-7.72 2.34,-11.59 2.55,-5.16 8.24,-7.31 12.88,-10.12 3.53,0.06 5.77,-2.7 8.24,-4.79 z"
     id="path3419"
     inkscape:connector-curvature="0"
     style="fill:#0b0b0b" />
  <path
     d="m 366.63985,146.90089 c 1.64,0.23 3.63,-0.14 4.7,1.46 0.53,3 -0.14,6 -1.81,8.54 0.66,5.96 5.64,10.64 5.23,16.75 -0.04,2.78 -2,4.75 -3.74,6.68 -1.51,-2.5 -3.21,-4.91 -4.24,-7.66 -0.97,-3.45 -1.48,-7.24 -3.91,-10.05 -1.87,-2.1 -3.4,-4.46 -4.88,-6.82 1.91,-1.08 4.28,-1.67 5.62,-3.52 0.89,-1.86 1.76,-3.74 3.03,-5.38 z"
     id="path3421"
     inkscape:connector-curvature="0"
     style="fill:#0b0b0b" />
  <path
     d="m 573.76985,146.54089 c 0.78,4.18 2.26,8.77 6.02,11.19 4.69,1.55 9.43,3.14 14.39,3.58 4.21,0.4 7.59,3.05 11.42,4.53 3.91,4.65 4.96,10.78 6.64,16.44 -0.19,4.82 1.42,9.43 1.2,14.23 -0.41,-0.18 -1.24,-0.52 -1.66,-0.7 -3.82,-7 -7.62,-15.58 -15.8,-18.27 -3.17,-0.77 -6.1,-2.32 -9.36,-2.68 -4.87,-0.52 -7.87,-4.72 -11,-7.98 -2.9,-2.77 -4.63,-6.77 -4.24,-10.8 0.39,-2.3 -1.17,-3.97 -2.38,-5.7 0.76,-0.1 2.28,-0.3 3.04,-0.4 0.54,-1.16 1.12,-2.31 1.73,-3.44 z"
     id="path3423"
     inkscape:connector-curvature="0"
     style="fill:#0b0b0b" />
  <path
     d="m 205.11985,165.83089 c 5.06,-5.5 9.81,-11.3 15.35,-16.32 -0.52,6.84 -2.24,13.57 -2.11,20.47 -1.31,4.23 -0.5,8.77 -2.17,12.92 -1.91,4.94 -3,10.14 -4.91,15.08 -4.66,11.15 -13.03,20.09 -21.55,28.45 -3.56,7.73 -4.38,16.86 -2.08,25.09 -0.45,-0.17 -1.36,-0.49 -1.82,-0.66 -2.76,-6.74 -4.61,-13.78 -6.37,-20.82 -0.14,-2.63 -0.1,-5.28 -0.04,-7.91 0.96,-7.03 6.5,-12.2 8.43,-18.88 -2.1,-0.12 -4.21,-0.29 -6.32,-0.11 -1.61,0.61 -2.77,1.99 -4.13,3.01 -2.01,-2.98 -0.01,-6.47 0.38,-9.65 2,-3.97 2.98,-8.72 7.02,-11.24 4.68,-1.41 9.44,2.45 10.44,6.96 1.4,3.71 0.7,7.92 2.86,11.37 3.54,-5.25 2.67,-11.84 4.28,-17.69 0.27,-3.67 -1.5,-7.15 -1.02,-10.85 -0.4,-3.5 1.57,-6.67 3.76,-9.22 z"
     id="path3425"
     inkscape:connector-curvature="0"
     style="fill:#0b0b0b" />
  <path
     d="m 396.82985,155.21089 c 2.12,-0.11 4.24,-0.14 6.36,-0.15 0.01,4.58 2.18,9.08 0.88,13.66 -1.85,7.24 -5.32,14.03 -6.6,21.44 -0.12,3.91 -0.14,7.84 0.03,11.75 -0.13,1.5 1.66,1.88 2.59,2.62 1.11,-8.17 2.52,-16.43 5.7,-24.07 1.15,-0.9 2.36,-1.72 3.56,-2.55 4.16,1.99 8.79,1.12 12.88,-0.57 2.79,1.44 4.92,3.79 6.68,6.35 1.75,1.16 3.72,1.96 5.67,2.73 -0.41,-2.22 -2.39,-7.06 1.76,-6.3 6.63,2.45 14.33,-1.17 20.36,3.09 -0.84,3.72 -2.23,7.28 -3.48,10.87 -4.38,0.17 -8.83,-0.37 -13.16,0.29 -0.97,1.59 -2.49,2.54 -4.22,3.15 -2.34,1.63 -4.13,3.92 -6.26,5.8 -2.18,-4.75 0.34,-11.41 -4.74,-14.69 -0.77,-2.6 -1.46,-5.21 -2.35,-7.77 -3.84,1.27 -7.99,1.01 -11.74,2.54 -2.78,0.75 -4.01,3.63 -5.4,5.86 -0.01,1.67 0.46,3.29 0.76,4.92 -0.69,5.39 -1.35,11.07 -0.5,16.54 2.67,2.5 6.45,3.25 9.76,4.6 0.02,1.5 0.04,3.01 0.06,4.53 -3.11,3.13 -7.26,5.16 -11.64,5.66 -2.67,1.37 -5.26,2.89 -8.14,3.79 -5.89,3.92 -11.3,8.67 -15.96,14.03 -2.35,1.78 -4.8,4.6 -8.06,3.74 -1.9,-0.4 -4.01,-2.53 -3.03,-4.61 1.15,-1.71 3.09,-2.55 4.77,-3.6 0.01,-0.62 0.04,-1.87 0.05,-2.5 -1.81,-1.75 -3.8,-3.27 -6.02,-4.44 0.01,-0.76 0.01,-2.27 0.02,-3.03 6.32,1.11 13.2,4.23 19.37,0.7 -0.47,-0.3 -1.39,-0.91 -1.85,-1.21 -4.88,-0.41 -9.29,-2.64 -14,-3.78 3.22,-5.3 7.74,-9.6 11.56,-14.45 2.85,-2.54 4.65,-5.99 7.54,-8.5 1.17,-3.66 1.85,-7.55 1.18,-11.37 -0.95,-4.11 -3.05,-7.84 -4,-11.95 -0.3,-1.4 -1.47,-2.39 -2.17,-3.59 1.81,-2.05 4.42,-2.84 6.69,-4.21 -1.08,-2.25 -2.94,-4.47 -2.2,-7.13 2.92,-3.51 6.78,0.98 9.95,1.85 0.51,-0.38 1.54,-1.13 2.05,-1.5 -0.75,-3.29 -2.67,-5.94 -4.71,-8.54 z"
     id="path3427"
     inkscape:connector-curvature="0"
     style="fill:#0b0b0b" />
  <path
     d="m 425.09985,157.86089 c 3.37,-0.01 7.68,1.21 8.5,4.97 1.32,2.71 0.81,5.73 0.07,8.51 -0.48,2.83 0.3,6.75 -2.87,8.24 -1.32,-5.13 -1.33,-10.56 -3.38,-15.49 -0.84,-2.06 -1.58,-4.15 -2.32,-6.23 z"
     id="path3429"
     inkscape:connector-curvature="0"
     style="fill:#0b0b0b" />
  <path
     d="m 139.71985,162.29089 c 2.95,-0.29 6.15,-0.68 8.98,0.39 1.86,2.72 2.62,6.51 0.74,9.43 -2.26,3.11 -7.62,4.49 -10.42,1.31 -3.43,-2.8 -2.1,-8.58 0.7,-11.13 z"
     id="path3431"
     inkscape:connector-curvature="0"
     style="fill:#0b0b0b" />
  <path
     d="m 295.43985,162.20089 c 0.46,-0.01 1.4,-0.02 1.87,-0.03 -0.23,4.66 0.92,9.21 2.44,13.57 1.29,3.18 3.9,5.6 5.31,8.72 0.41,1.62 0.71,3.27 1.17,4.89 -1.26,0.16 -3.03,1.47 -4.01,0.12 -4.26,-5 -4.95,-11.77 -6.21,-17.97 -0.84,-3.04 -0.58,-6.2 -0.57,-9.3 z"
     id="path3433"
     inkscape:connector-curvature="0"
     style="fill:#fbfbfb" />
  <path
     d="m 690.62985,171.29089 c 1.84,-1.98 4.4,-3 6.72,-4.29 0.99,0.48 1.99,0.95 3.01,1.4 1.16,4.06 0.3,8.29 -0.16,12.39 -1.3,4.11 -0.38,8.45 -1.23,12.63 -0.63,3.94 -0.66,7.94 -0.47,11.92 9.99,-1.97 18.88,-7.48 28.81,-9.5 1.52,1.89 0.48,3.98 -0.09,6 -5.29,1.72 -10.93,2.5 -15.82,5.25 -5.69,3.1 -12.13,4.36 -17.93,7.25 -1.48,-2.82 -1.52,-6.06 -1.64,-9.17 1.18,-6.46 0.19,-13.09 1,-19.58 0.59,-2.27 0.62,-4.63 0.5,-6.96 -3.89,1.21 -6.32,4.55 -9.35,7.01 -3.12,2.91 -6.25,5.83 -9.74,8.29 -3.04,2.47 -5.39,6.4 -9.79,6.41 -0.14,-1.43 -1.03,-3 -0.06,-4.32 3.33,-4.9 8.29,-8.32 12.24,-12.68 4.11,-4.65 9.76,-7.54 14,-12.05 z"
     id="path3435"
     inkscape:connector-curvature="0"
     style="fill:#0b0b0b" />
  <path
     d="m 546.21985,171.58089 c 3.15,2.12 4.51,5.91 7.48,8.18 2.36,1.83 5.45,1.02 8.16,1.72 4.37,1.14 8.91,0.27 13.36,0.7 3.17,2.3 7.87,1.34 10.26,4.86 6.75,5.6 8.76,14.47 12.89,21.84 -0.44,0.36 -1.31,1.09 -1.75,1.45 -2.89,-7.24 -9.84,-12.54 -17.4,-14.07 -3.77,-0.72 -8.04,0.92 -11.31,-1.63 -4.43,-1.31 -10.63,-0.09 -13.45,-4.7 -4.69,-4.97 -7.05,-11.73 -8.24,-18.35 z"
     id="path3437"
     inkscape:connector-curvature="0"
     style="fill:#0b0b0b" />
  <path
     d="m 376.33985,182.30089 c 1.69,-1.03 3.55,-0.64 5.33,-0.11 -0.32,1.37 -0.69,2.73 -1.1,4.08 -1.44,-1.25 -4.63,-1.52 -4.23,-3.97 z"
     id="path3439"
     inkscape:connector-curvature="0"
     style="fill:#0b0b0b" />
  <path
     d="m 101.68985,190.39089 c 4.15,-3.5 9.02,-5.89 13.6,-8.75 0.77,2.1 1.88,4.16 2.1,6.4 -0.83,5 -2.31,9.94 -2.02,15.06 5.52,-2.29 10.09,-6.23 15.49,-8.74 1.25,-0.59 2.65,-0.01 3.97,0.02 2.76,8.52 4.85,17.29 6.21,26.16 0.46,4.32 2.81,8.27 2.34,12.68 -1.27,-0.07 -2.53,-0.13 -3.79,-0.19 -1.44,-3.82 -2.5,-7.76 -3.37,-11.74 -1.4,-6.17 -4.21,-12.11 -3.96,-18.57 -6.12,1.16 -10.66,5.74 -16.35,7.9 -1.69,0.83 -3.42,1.58 -5.14,2.35 5.39,4.6 11.2,8.9 17.36,12.35 1.12,0.99 2.17,2.05 3.27,3.07 -0.73,1.28 -1.43,2.58 -2.14,3.88 -5.9,0.13 -9.47,-5.31 -14.33,-7.71 -4.05,-1.65 -7,-5.09 -10.84,-7.12 -4.65,-2.67 -8.98,-5.97 -13.92,-8.1 -1.95,-1.71 -3.15,-4.07 -4.82,-6.03 0.62,-1.49 0.98,-3.09 1.7,-4.54 4.18,-3.95 10.31,-4.65 14.64,-8.38 z"
     id="path3441"
     inkscape:connector-curvature="0"
     style="fill:#0b0b0b" />
  <path
     d="m 636.11985,183.83089 c 0.9,-1.25 2.22,-1.97 3.77,-2.11 -5.16,7.49 -7.4,17.55 -3.81,26.18 1.41,-0.04 3.18,0.52 3.99,-1.05 3.49,-3.17 4.66,-8.45 9.51,-10.07 -1.38,2.48 -2.91,5.12 -2.1,8.08 1.7,7.64 1.58,16.15 6.53,22.65 2.64,5.04 3.66,10.73 5.53,16.07 4.94,-4.88 5.57,-12.41 10.09,-17.57 -0.54,-1.42 -1.12,-2.83 -1.65,-4.25 -3.13,0.01 -5.11,2.49 -7.63,3.91 -0.31,-4.37 1.98,-8.53 1.02,-12.84 -1.8,0.72 -3.55,1.52 -5.33,2.26 0.42,-2.72 2.46,-5.36 1.45,-8.15 -1.26,-4.72 -0.8,-9.79 0.5,-14.47 0.17,4.95 2.16,9.91 6.03,13.09 0.64,2.17 1.09,4.39 1.62,6.59 1.83,-0.22 3.76,-0.9 5.48,0.13 2.39,2.01 3.96,4.77 5.88,7.2 2.84,3.4 0.17,8.2 2.42,11.84 0.24,1.55 2.34,0.5 2.76,-0.42 2.23,-3.26 3.63,-7.04 4.26,-10.93 0.1,-2.78 -1.16,-5.39 -1.19,-8.17 4.71,2.86 9.04,7.46 9.2,13.28 0.98,3.65 -0.08,7.28 -0.08,10.97 -0.32,5.35 -2.53,10.31 -3.31,15.57 -1.12,2.52 -2.52,4.94 -3.04,7.68 2.42,0.2 2.76,-2.31 3.82,-3.88 5.27,-6.55 12.56,-11.2 17.68,-17.88 -0.08,4.03 -2.83,7.37 -3.35,11.34 -1.55,3.37 0.41,6.76 0.57,10.19 0.6,0.01 1.81,0.01 2.42,0.01 1.27,-7.49 4.73,-14.35 8.24,-21.03 1.88,-2.62 5.49,-3.78 8.56,-2.68 3.9,2.73 7.27,6.09 10.96,9.09 1.05,1 1.28,2.56 1.93,3.84 -3.28,-0.7 -6.65,-1.81 -10.02,-1 -3.61,2.53 -5.17,6.87 -6.27,10.95 -0.78,6.47 1.06,13.28 -1.46,19.49 -1.45,3.04 -4.06,5.32 -5.99,8.04 -3.26,1.27 -6.23,3.55 -9.83,3.61 -3.61,0.13 -7.03,1.43 -10.59,1.87 -1.36,0.16 -2.23,1.39 -3.33,2.06 -0.31,-0.26 -0.93,-0.79 -1.23,-1.06 -1.4,2.88 -4.44,4.19 -6.83,6.05 -0.59,-4.72 3.57,-7.81 5.99,-11.34 3.74,-2.54 6.53,-6.15 9.94,-9.08 1.61,-1.24 4.08,-2.38 3.99,-4.74 -0.68,-2.38 -1.62,-4.67 -2.32,-7.03 -3.65,1.65 -6.58,4.4 -9.85,6.63 -2.82,1.42 -6.07,2.25 -8.28,4.66 -1.26,1.46 -2.39,3.04 -3.92,4.23 -2.28,4.32 -5.35,8.58 -4.52,13.76 -1.32,-1.2 -2.6,-2.44 -3.91,-3.64 -0.3,-5.79 0.16,-11.55 1.34,-17.22 1.61,-3.4 2.91,-6.96 4.92,-10.16 2.54,-4.39 5.76,-8.84 5.87,-14.11 -1.4,-2.32 -3.52,-4.12 -5.16,-6.27 -2.7,-0.55 -2.39,3.03 -3.48,4.64 -5.27,8.42 -10.55,17.73 -9.54,28.06 -1.41,-2.3 -2.57,-4.75 -3.9,-7.09 -2.78,7.15 -3.83,14.86 -4.1,22.47 -0.69,0 -2.08,0 -2.78,0 -2.37,-8.61 -0.62,-17.66 -1.27,-26.47 -1.17,0.61 -2.37,1.15 -3.45,1.88 -2.58,4.83 -7.2,8.48 -8.15,14.14 -2.26,-3.04 -1.06,-7.05 -1.31,-10.55 0.67,-4.56 1.32,-9.32 3.65,-13.4 1.36,-2.84 4.33,-4.62 5.32,-7.68 -0.72,-5.12 -0.65,-10.69 -3.84,-15.05 -1.18,-1.4 -1.15,-3.28 -1.39,-4.99 -3.86,-0.69 -6.41,2.16 -8.89,4.59 -3.23,-2.43 -3.41,-6.67 -5.41,-9.91 -1.18,-3.57 0.24,-7.53 -0.87,-11.15 -1.12,-3.45 -1.95,-6.99 -2.56,-10.56 -0.14,-2.95 1.08,-5.76 1.21,-8.7 4,-2.62 6.52,-6.77 9.49,-10.4 z"
     id="path3443"
     inkscape:connector-curvature="0"
     style="fill:#0b0b0b" />
  <path
     d="m 412.18985,189.11089 c 1.01,-0.5 2.06,-0.9 3.16,-1.2 1.14,0.72 2.15,1.64 3.24,2.46 -0.85,0.89 -1.69,1.79 -2.52,2.7 -1.18,0 -2.35,0.01 -3.52,0.01 -0.12,-1.33 -0.24,-2.65 -0.36,-3.97 z"
     id="path3447"
     inkscape:connector-curvature="0"
     style="fill:#0b0b0b" />
  <path
     d="m 379.44985,189.93089 c 1.69,0.27 3.86,-0.29 4.88,1.49 0.87,1.94 -1.21,3.2 -2.08,4.67 -0.95,-0.5 -1.9,-0.99 -2.86,-1.46 0.01,-1.56 0.02,-3.13 0.06,-4.7 z"
     id="path3449"
     inkscape:connector-curvature="0"
     style="fill:#0b0b0b" />
  <path
     d="m 247.69985,194.36089 c 4.31,-2.72 9.45,-2.29 14.25,-3.42 -2.35,2.34 -5.25,3.99 -8.15,5.54 -2.28,1.69 -4.1,3.92 -6.14,5.89 -3.89,3.78 -5.75,9.01 -8.25,13.71 -2.8,5.08 -3.56,11.15 -7.22,15.79 -2.05,2.44 -5.38,3.14 -7.61,5.38 -7.07,4.28 -15.98,5.1 -22.41,10.56 -3.39,2.59 -4.05,7.08 -6.71,10.24 -2.13,2.56 -2.49,6.09 -4.71,8.61 0.52,-8.63 1.56,-18.03 7.35,-24.87 2.25,-2.82 3.16,-6.63 6.04,-8.95 4.01,-2.63 8.62,-4.1 12.93,-6.13 4.18,-3.5 7.99,-7.63 10.36,-12.6 2.24,-4.76 4.88,-9.62 9.19,-12.81 3.56,-2.59 6.47,-6.34 11.08,-6.94 z"
     id="path3451"
     inkscape:connector-curvature="0"
     style="fill:#0b0b0b" />
  <path
     d="m 93.87985,202.07089 c 5.38,-3.21 9.74,-8.66 16.37,-9.3 0.65,5.95 -0.87,11.82 -2.14,17.59 -1.27,-0.35 -2.79,-0.14 -3.86,-1 -3.3,-2.66 -6.94,-4.81 -10.37,-7.29 z"
     id="path3453"
     inkscape:connector-curvature="0"
     style="fill:#fbfbfb" />
  <path
     d="m 467.04985,194.50089 c 4.44,-1.93 9.44,-1.82 13.99,-0.28 1.76,5.2 6.76,8.04 9.94,12.22 1.74,3.26 4.09,6.22 5.32,9.74 1.77,5.9 3.45,11.96 6.79,17.2 2.72,5.18 3.13,11.14 4.24,16.79 0.32,4.07 0.62,9.09 -3.17,11.74 -6.78,-1.11 -12.46,-5.61 -16.95,-10.61 -3.46,-5.8 -6.75,-11.81 -8.78,-18.25 -0.14,-2.79 -3.11,-3.71 -5.15,-4.86 -3.18,-0.17 -6.41,-0.3 -9.55,0.29 -2.94,0.84 -5.94,-1.07 -8.87,-0.03 -5.8,1.79 -11.97,1.21 -17.63,3.46 -4.2,0.36 -8.43,0.18 -12.64,0.13 -1.67,-1.12 -3.36,-2.22 -4.97,-3.42 -0.37,-1.72 -0.77,-4.17 1.32,-4.92 5.71,-3.63 8.62,-10.08 13.98,-14.13 1.65,-3.22 3.91,-6.22 7.41,-7.58 5.7,-4.25 13.24,-3.74 20,-4.03 1.91,-0.53 3.21,-2.25 4.72,-3.46 z"
     id="path3455"
     inkscape:connector-curvature="0"
     style="fill:#0b0b0b" />
  <path
     d="m 413.67985,199.29089 c 1.31,-0.43 2.54,0.73 3.81,0.97 -0.03,1.18 -0.06,2.37 -0.08,3.57 -1.56,0.39 -3.09,0.86 -4.6,1.36 -0.52,-1.15 -1.06,-2.29 -1.6,-3.42 0.81,-0.84 1.6,-1.7 2.47,-2.48 z"
     id="path3457"
     inkscape:connector-curvature="0"
     style="fill:#0b0b0b" />
  <path
     d="m 154.99985,200.88089 c 4.84,1.56 10.04,3.13 13.39,7.24 2.53,1.82 5.54,4.32 5.01,7.8 -1.16,3.6 -4.15,6.16 -6.1,9.28 1.07,7.11 6.9,12.2 10.46,18.17 -6.17,-3.21 -10.89,-8.48 -17.06,-11.67 -1.65,-2.35 -1.72,-5.55 -0.95,-8.2 2.71,-4.09 6.67,-8.83 4.43,-14.03 -2.68,-3.25 -6.06,-5.79 -9.18,-8.59 z"
     id="path3459"
     inkscape:connector-curvature="0"
     style="fill:#0b0b0b" />
  <path
     d="m 548.89985,202.21089 c 6.14,-0.8 12.18,0.74 18.09,2.19 7.55,4.39 12.12,12.02 17.91,18.24 4.69,2.1 8.29,5.75 12.59,8.49 0.09,-4.58 -2.01,-8.77 -2.86,-13.19 1.55,0.06 3.1,0.12 4.67,0.18 2.76,-4.95 5.07,-10.18 6.56,-15.66 0.31,-0.25 0.93,-0.77 1.24,-1.03 1.05,6.14 0.34,12.35 -0.42,18.47 -0.7,4.08 1.52,7.91 3.64,11.22 1.18,2.21 2.41,4.82 5.17,5.33 -2.45,-2.61 -3.61,-5.91 -4.09,-9.39 1.28,-5.88 3.06,-11.71 5.99,-17 0.43,-1.5 2.01,-1.83 3.26,-2.43 -1.55,4.06 -2.26,8.31 -2.99,12.57 3.47,10.12 10.68,18.42 14.05,28.58 2.33,4.48 2.11,9.76 0.97,14.55 -1.05,5.62 1.27,11.89 -2.3,16.89 -0.99,-0.78 -1.97,-1.56 -2.94,-2.34 -1.03,0.83 -2.05,1.67 -3.08,2.49 -0.24,3.47 0.4,6.89 1.65,10.13 0.82,3.64 4.43,5.95 4.71,9.79 -7.56,-1.22 -16.02,-3.05 -20.64,-9.81 -2.66,-2.21 -1.11,-5.95 -2.26,-8.83 -1.25,-7.98 -6.98,-14.03 -10.72,-20.89 7.2,5.59 14.41,11.29 22.59,15.48 0.04,-5.76 -0.53,-11.78 -3.95,-16.62 -3.22,-0.87 -6.39,-1.95 -9.35,-3.5 -4.49,-2.42 -9.9,-2.2 -14.33,-4.71 -3.78,-2.09 -8.02,-3.18 -11.82,-5.18 -2.82,-2.51 -6.59,-4.32 -7.88,-8.12 -3.41,-5.59 -3.97,-12.27 -6.92,-18.05 -1.49,-3.83 -2.89,-8.14 -6.61,-10.39 -1.83,-1.14 -2.62,-3.46 -4.7,-4.23 -1.73,-1.16 -4.5,-0.97 -5.23,-3.23 z"
     id="path3461"
     inkscape:connector-curvature="0"
     style="fill:#0b0b0b" />
  <path
     d="m 234.60985,205.29089 c 0.65,0.66 0.65,0.66 0,0 z"
     id="path3463"
     inkscape:connector-curvature="0"
     style="fill:#fbfbfb" />
  <path
     d="m 382.61985,213.29089 c 0.64,0.63 0.64,0.63 0,0 z"
     id="path3465"
     inkscape:connector-curvature="0"
     style="fill:#fbfbfb" />
  <path
     d="m 382.09985,219.16089 c 1.48,-1.89 2.77,-3.99 4.94,-5.18 1.29,2.95 3.95,4.67 6.45,6.49 -1.76,2.68 -4.82,2.91 -7.75,2.64 -1.17,-1.36 -2.4,-2.66 -3.64,-3.95 z"
     id="path3467"
     inkscape:connector-curvature="0"
     style="fill:#fbfbfb" />
  <path
     d="m 84.74985,226.44089 c 5.85,-1.09 12.27,-0.47 17.25,3.03 3.53,2.74 7.81,5.17 9.47,9.57 1.53,3.84 3.22,7.82 3,12.03 0.32,3.74 -1.24,7.21 -2.41,10.66 -1.69,5.01 -7.4,6.72 -9.96,11.11 -3.12,1.54 -6.57,2.19 -9.91,3.1 -8.52,1.26 -16.59,-3.41 -21.62,-10.04 -3.38,-2.34 -3.41,-6.57 -5,-10.01 -0.88,-6.32 0.19,-12.8 3.17,-18.45 4.17,-5.12 9.42,-9.53 16.01,-11 z"
     id="path3469"
     inkscape:connector-curvature="0"
     style="fill:#0b0b0b" />
  <path
     d="m 356.74985,232.06089 c 1.2,0.04 2.4,0.07 3.6,0.1 3.29,3.57 3.91,8.55 6.71,12.39 0.54,1.29 0.38,2.75 0.57,4.11 -2.15,0.81 -4.31,1.59 -6.4,2.54 -2.01,-1.23 -4.55,-2.25 -5.19,-4.76 -0.78,-2.98 -1.57,-6.06 -1.64,-9.15 0.69,-1.78 1.61,-3.47 2.35,-5.23 z"
     id="path3471"
     inkscape:connector-curvature="0"
     style="fill:#0b0b0b" />
  <path
     d="m 82.74985,233.35089 c 3.78,-0.54 7.68,-0.24 11.51,-0.17 6.88,2.16 11.56,8.61 14.04,15.1 0.72,6.36 -2.88,12.21 -7.22,16.53 -5.12,2.45 -10.67,4.93 -16.49,4.24 -4.48,-2.7 -9.47,-5.37 -11.77,-10.36 -3.11,-4.29 -0.23,-9.51 -0.11,-14.21 2.39,-4.37 5.46,-8.86 10.04,-11.13 z"
     id="path3473"
     inkscape:connector-curvature="0"
     style="fill:#fbfbfb" />
  <path
     d="m 672.69985,234.33089 c 0.55,0.57 0.55,0.57 0,0 z"
     id="path3475"
     inkscape:connector-curvature="0"
     style="fill:#868686" />
  <path
     d="m 227.00985,241.70089 c 1.46,-1.78 2.1,-4.58 4.63,-5.1 -0.3,3.11 -1.12,6.14 -1.43,9.26 -0.95,4.7 -4.99,7.7 -7.57,11.48 -4.57,4.09 -10.33,6.56 -15.88,9.05 -1.69,1.73 -3.54,3.48 -4.26,5.88 -0.27,1.03 -0.86,1.81 -1.77,2.36 -0.26,-3.26 -1.52,-6.81 0.28,-9.85 5.4,-10.89 18.32,-14.32 26,-23.08 z"
     id="path3477"
     inkscape:connector-curvature="0"
     style="fill:#0b0b0b" />
  <path
     d="m 635.29985,238.30089 c 1.84,-0.62 3.72,-1.7 5.73,-1.13 1.57,1.42 3.39,2.87 3.89,5.05 -0.19,1.68 -0.54,3.33 -0.76,5.01 -3.1,0.16 -6.14,-0.39 -8.7,-2.21 -0.21,-2.23 -0.52,-4.48 -0.16,-6.72 z"
     id="path3479"
     inkscape:connector-curvature="0"
     style="fill:#0b0b0b" />
  <path
     d="m 126.44985,244.02089 c 2.9,-1.93 6.14,0.52 9.18,0.89 5.4,0.43 11.89,-0.17 15.77,4.36 0.24,3.78 -0.2,7.52 -1.14,11.18 2.31,-1.05 5.02,-1.79 6.59,-3.93 1.02,-1.5 3.04,-1.51 4.38,-2.6 2.79,-1.54 4.27,-4.79 7.55,-5.59 3.29,-1.49 5.47,1.95 7.33,4.06 1.17,4 2.78,7.82 4.35,11.67 2.11,4.93 1.88,10.38 3.14,15.52 -2.29,-3.23 -5.21,-5.94 -7.5,-9.17 -2.65,-2.76 -5.39,-6.58 -9.67,-6.36 -5.07,-0.07 -8.69,3.91 -12.71,6.34 -1.92,3.33 -4.94,6.16 -9.07,5.88 -4.4,-5.03 -3.02,-12.18 -3.25,-18.3 0.18,-3.67 -2.96,-6.28 -5.66,-8.23 -2.66,-2.55 -5.85,-4.43 -9.29,-5.72 z"
     id="path3481"
     inkscape:connector-curvature="0"
     style="fill:#0b0b0b" />
  <path
     d="m 582.56985,255.06089 c 1.92,0 3.85,0.01 5.78,-0.01 1.13,2.15 3.31,4.89 1.4,7.26 -1.7,1.5 -3.67,2.64 -5.43,4.06 -2.38,-1.6 -4.33,-3.58 -5.1,-6.41 1.02,-1.7 2.1,-3.36 3.35,-4.9 z"
     id="path3483"
     inkscape:connector-curvature="0"
     style="fill:#0b0b0b" />
  <path
     d="m 327.63985,256.30089 c 0.63,0.63 0.63,0.63 0,0 z"
     id="path3485"
     inkscape:connector-curvature="0"
     style="fill:#fbfbfb" />
  <path
     d="m 452.22985,265.93089 c 5.5,-3.73 12.2,-4.58 18.36,-6.72 3.21,-0.27 6.46,-0.26 9.67,-0.02 3.76,1.22 7.65,2.74 10.47,5.62 1.63,1.82 4.52,2.01 5.73,4.26 1.07,2 3.52,2.4 5.15,3.8 1.8,1.54 3.55,3.15 5.18,4.87 2.25,6.11 0.62,12.8 -1.5,18.72 -4.52,-0.83 -7.32,-4.91 -11.16,-7.07 -1.77,-0.87 -2.57,-3.01 -4.58,-3.43 -2.64,-0.78 -4.2,-3.27 -6.76,-4.21 -3.09,-1.35 -6.31,-2.33 -9.19,-4.13 -0.64,3.81 0.27,7.55 0.97,11.27 4.13,-0.4 6.92,2.79 9.72,5.25 2.84,1.74 3.51,5.23 5.18,7.9 2.11,4.13 5.84,7.09 8.03,11.16 -0.75,3.93 -3.81,6.94 -6.94,9.2 -1.15,1.1 -3.2,1.05 -4.32,-0.06 -2.49,-2.22 -5.53,-3.88 -7.75,-6.35 -3.29,-6.01 -8.92,-10.22 -12.46,-16.02 -6.77,1.35 -13.67,1.26 -20.55,1.06 -3.97,-0.75 -7.85,-1.95 -11.66,-3.27 -2.23,-1.8 -4.3,-3.81 -6.17,-5.97 -1.44,-2.45 -1.74,-5.65 -0.87,-8.31 3.04,-3.57 4.88,-8.89 9.88,-10.13 5.47,-1.98 9.77,-6.24 15.57,-7.42 z"
     id="path3487"
     inkscape:connector-curvature="0"
     style="fill:#0b0b0b" />
  <path
     d="m 198.76985,275.39089 c 1.4,-0.99 3.78,0.04 3.61,1.85 -0.65,10.48 5.27,19.7 7,29.82 -0.7,3.36 -1.8,7.07 -0.3,10.37 2.4,5.07 2.72,10.77 3.75,16.21 1.11,2.88 2.47,5.67 3.42,8.63 0.45,2.75 -0.17,5.6 0.39,8.34 5.04,5.15 6.5,12.58 7.44,19.45 -2.94,1.74 -5.89,0.12 -8.78,-0.82 -4.27,0.67 -8.6,0.94 -12.4,3.22 -3.74,-6.76 -4.53,-14.57 -4.62,-22.14 -0.86,-1.67 -1.92,-3.26 -1.97,-5.21 -0.25,-3.45 -3.77,-5.62 -3.94,-9.1 -0.15,-2.45 1.37,-4.52 2.29,-6.68 -1.99,-1.25 -4.4,-1.9 -6.11,-3.54 -0.37,-5.56 0.02,-11.15 -0.18,-16.71 -0.1,-2.16 -1.78,-3.88 -1.93,-6.02 -0.12,-3.61 0.01,-7.21 -0.03,-10.81 -1.92,-1.54 -4.26,-2.6 -5.83,-4.53 -0.78,-1.92 0.44,-3.78 1.02,-5.55 5.99,-1.5 11.72,-3.89 17.17,-6.78 z"
     id="path3489"
     inkscape:connector-curvature="0"
     style="fill:#0b0b0b" />
  <path
     d="m 47.40985,276.04089 c 0.73,0.01 2.19,0.04 2.92,0.05 2.61,2.93 3.35,7.1 6.33,9.73 3.32,3.19 4.98,7.72 8.61,10.65 3.59,-2.19 6.45,-5.37 10.19,-7.34 3.5,-1.64 5.82,-5.13 9.76,-5.89 4.41,4.19 6.01,10.42 10.37,14.68 3.04,5.45 7.47,9.97 10.61,15.37 2.76,4.45 7.84,8.13 7.35,13.95 -1.73,0.16 -3.98,0.77 -5.17,-0.97 -1.64,-2.39 -4.03,-4.28 -5.14,-7.01 -3.64,-6.22 -8.92,-11.33 -12.27,-17.74 -1.6,-3.16 -4.46,-5.41 -6.16,-8.5 -1.29,0.12 -2.67,-0.13 -3.89,0.41 -4.91,3.96 -11.13,6.12 -15.39,10.94 -4.57,-2.1 -7.36,-6.33 -10.08,-10.33 -2.28,-4.56 -6.57,-7.76 -8.79,-12.36 -0.82,-1.88 -0.15,-3.93 0.75,-5.64 z"
     id="path3491"
     inkscape:connector-curvature="0"
     style="fill:#0b0b0b" />
  <path
     d="m 434.87985,282.53089 c 2.73,-0.29 5.36,-1.07 7.68,-2.58 3.19,1.92 6.25,4.05 9.3,6.19 -5.69,2.32 -11.72,0.01 -17.43,-0.98 0.11,-0.65 0.33,-1.97 0.45,-2.63 z"
     id="path3493"
     inkscape:connector-curvature="0"
     style="fill:#fbfbfb" />
  <path
     d="m 405.17985,284.95089 c 2.05,-5.57 11.24,-5.21 12.93,0.4 1.78,2.76 1.03,6.14 1.89,9.17 0.83,2.86 0.47,5.87 -0.71,8.57 -4.14,-0.88 -8.31,2.21 -12.14,-0.07 -2.77,4.02 -8.28,5.28 -12.95,5.38 -6.34,-0.76 -11.84,-5.18 -13.89,-11.28 -2.3,-3.26 0.82,-6.87 3.36,-8.86 3.12,-0.31 6.25,-0.64 9.38,-0.94 4.08,-0.62 7.94,-2.45 12.13,-2.37 z"
     id="path3495"
     inkscape:connector-curvature="0"
     style="fill:#0b0b0b" />
  <path
     d="m 389.57985,296.26089 c 3.59,-1.15 7.34,-1.42 11.09,-1.14 0.03,3.54 -3.88,4.7 -6.66,5.59 -1.96,0.96 -3.88,-0.44 -5.76,-0.89 0.44,-1.2 0.89,-2.38 1.33,-3.56 z"
     id="path3497"
     inkscape:connector-curvature="0"
     style="fill:#fbfbfb" />
  <path
     d="m 349.01985,300.69089 c 2.72,-0.9 5.54,-1.57 8.32,-2.3 2.19,0.42 4.47,1.09 6.66,0.26 3.41,-1.34 6.78,0.86 10.02,1.78 5.86,3.41 9.95,11.08 7.37,17.7 0.34,1.69 1.28,3.18 1.72,4.84 -0.7,2.53 -0.49,5.19 -1.08,7.72 -3.04,6.4 -5.14,13.19 -7.14,19.96 -1.14,0.21 -2.27,0.41 -3.4,0.62 -2.09,4.26 -0.78,8.87 0.8,13.03 0.52,4.74 -1.27,10.67 -6.15,12.49 -2.66,1.57 -7.5,2.67 -8.71,-1.09 -2.61,2.52 -4.86,5.67 -8.35,7.02 -2.14,0.75 -3.6,2.72 -5.86,3.19 -4.57,1.16 -9.08,2.73 -13.79,3.17 -9.69,0.02 -19.38,-0.02 -29.06,0.01 -2.68,-0.07 -5.2,1.1 -7.87,1 -10.03,-0.21 -20.18,0.79 -29.66,4.27 -0.24,-3.17 -3.24,-5.21 -3.43,-8.35 -0.05,-3.09 -2.64,-5.6 -2,-8.76 0.78,-2.65 2.71,-5.39 5.75,-5.42 7.28,-2.22 15.33,-2.16 22.05,-5.98 7.05,-5.51 14.57,-10.43 22.56,-14.48 2.62,-0.74 5.5,0.22 8.06,-0.92 2.96,-1.14 5.88,-2.39 9.06,-2.79 4.6,-2.57 10.03,-3.13 15.02,-1.39 0.85,1.37 1.83,2.66 2.83,3.94 -3.26,3.9 -7.19,7.27 -11.64,9.65 -5.7,1.44 -10.94,4.22 -16.21,6.75 -1.61,0.65 -3.67,0.63 -4.71,2.25 -1.79,2.47 -4.28,4.63 -5.08,7.66 4.58,-2.5 9.23,-5.23 14.34,-6.43 7.32,0.26 14.56,-0.85 21.87,-1.12 1.73,-0.22 3.39,-0.77 5.1,-1.11 0.03,-2.5 -0.23,-5.03 0.21,-7.49 0.96,-1.96 2.89,-3.15 4.27,-4.78 2.92,-2.42 7.11,-2.52 9.91,-5.17 -1.29,-1.72 -2.74,-3.41 -3.45,-5.47 0.03,-2.6 1.06,-5.23 2.77,-7.19 2.39,-2.95 3.46,-6.66 4.86,-10.12 1.4,-5.05 -0.13,-10.95 -4.36,-14.23 0.2,2.23 0.61,4.46 0.57,6.72 -1.86,7.12 -4.77,13.91 -8.94,19.99 -2.42,-0.85 -4.98,-0.97 -7.49,-1.33 -2.61,-1.78 -2.93,-5.24 -4.29,-7.88 -0.12,-7.17 -0.76,-15.09 3.38,-21.35 1.49,-3.06 2.53,-6.55 5.17,-8.87 z"
     id="path3499"
     inkscape:connector-curvature="0"
     style="fill:#0b0b0b" />
  <path
     d="m 508.53985,297.64089 c 2.67,0.26 3.57,3.06 5.87,4.05 -0.76,6.13 1.98,11.75 4.04,17.34 1.57,2.99 0.8,6.46 0.98,9.7 -4.35,0.78 -8.39,2.67 -12.68,3.72 -3.76,0.7 -6.29,3.75 -9.48,5.55 -1.64,0.16 -3.29,0.11 -4.93,0.15 0,-1.9 0.05,-3.8 0.09,-5.69 3.85,-3.33 6.91,-7.41 9.86,-11.53 4.33,-6.99 5.36,-15.27 6.25,-23.29 z"
     id="path3501"
     inkscape:connector-curvature="0"
     style="fill:#0b0b0b" />
  <path
     d="m 595.44985,299.92089 c 1.79,0.13 3.6,0.28 5.36,0.74 4.27,1.06 8.78,-0.3 13.02,0.98 2.48,0.65 5.06,0.32 7.6,0.46 10.81,1.99 21.9,0.46 32.84,1.07 10.26,1.68 20.72,0.53 31.07,0.98 10.37,2.46 21.32,-0.62 31.63,1.82 -3.64,3.96 -6.62,8.73 -11.67,11.1 -5.7,-0.21 -11.54,0.66 -17.12,-0.75 -2.74,-0.37 -5.51,-0.15 -8.23,-0.58 -2.86,0.18 -5.69,-0.2 -8.51,-0.61 -9.68,-0.14 -19.37,0.02 -29.05,-0.07 -8.87,-1.82 -18,-0.66 -27,-0.97 -4.05,0.5 -8.01,-1.51 -11.9,0.2 -4.17,-2.3 -7.06,-6.18 -8.81,-10.55 -0.77,-1.3 0.41,-2.61 0.77,-3.82 z"
     id="path3503"
     inkscape:connector-curvature="0"
     style="fill:#0b0b0b" />
  <path
     d="m 42.68985,304.97089 c 1.67,-0.33 3.46,-1.43 5.08,-0.36 1.21,2.42 0.72,5.35 0.08,7.88 -1.73,6.08 -2.4,12.4 -4.16,18.47 6.82,2.85 14.29,2.99 21.46,4.34 6.51,3.55 14.35,2.09 21.07,4.97 1.18,1.14 1.1,2.94 1.51,4.43 -1.97,0.71 -3.97,1.75 -6.13,1.36 -8.8,-1.98 -17.58,-4.08 -26.45,-5.71 -4.01,-0.53 -8,-1.27 -11.9,-2.33 -1.18,4.01 -1.18,8.29 -2.39,12.3 -0.6,0.3 -1.8,0.92 -2.4,1.23 -0.12,1.97 0.22,4.1 -0.65,5.95 -1.37,1.18 -3.49,0.55 -5.13,0.37 -0.82,-0.98 -1.44,-2.08 -2.14,-3.14 0.68,-1.76 1.6,-3.4 2.63,-4.97 1.04,-6.64 3.23,-13.01 4.29,-19.64 0.22,-1.87 1.35,-3.45 1.8,-5.25 0.52,-6.72 1.79,-13.38 3.43,-19.9 z"
     id="path3505"
     inkscape:connector-curvature="0"
     style="fill:#0b0b0b" />
  <path
     d="m 433.72985,306.38089 c 7.99,-1.53 16.39,0.72 22.5,6.1 0.1,2.27 0.41,4.52 0.97,6.73 -0.62,3.18 -3.64,4.83 -5.86,6.83 -3.69,1.16 -7.05,3.33 -10.87,4.04 -2.56,-0.66 -5.15,-1.14 -7.79,-1.15 -3.87,-5.06 -1.16,-11.5 -3.11,-17.12 -1.02,-2.74 1.95,-4.66 4.16,-5.43 z"
     id="path3507"
     inkscape:connector-curvature="0"
     style="fill:#0b0b0b" />
  <path
     d="m 735.47985,318.15089 c 4.32,-2.94 6.32,-8.14 8.73,-12.59 4.97,4.9 11.34,7.88 17.24,11.44 1.34,0.56 1.88,1.92 2.41,3.19 -7.61,0.94 -11.52,-8.15 -18.87,-8.25 -2.48,3.67 -4.18,8.3 -8.41,10.32 -3.52,-2.02 -7.64,-2.85 -10.78,-5.52 -2.2,-1.93 -4.77,-3.41 -6.72,-5.59 0.65,-0.89 1.36,-1.74 2.12,-2.56 4.26,3.84 9.18,6.99 14.28,9.56 z"
     id="path3509"
     inkscape:connector-curvature="0"
     style="fill:#0b0b0b" />
  <path
     d="m 405.09985,312.93089 c 2.57,-3.86 7,-5.13 11.32,-5.9 1.54,0.65 2.64,2.06 3.67,3.35 2.1,2.82 1.1,6.47 1.32,9.73 -0.27,2.7 1.24,5.17 1.09,7.86 -0.5,2.14 -2.83,3.44 -4.92,3.08 -6.19,-1.41 -12.56,-1.65 -18.84,-2.25 -2.87,-1.94 -4.47,-5.12 -6.51,-7.81 0.5,-1.53 1,-3.06 1.39,-4.62 3.43,-2.19 7.42,-3.33 11.48,-3.44 z"
     id="path3511"
     inkscape:connector-curvature="0"
     style="fill:#0b0b0b" />
  <path
     d="m 138.42985,317.14089 c 0.12,-2.01 2.39,-1.93 3.8,-2.54 0.1,2.07 0.4,4.19 0.05,6.26 -2.54,6.5 -4.05,13.34 -6.11,20 3.35,2.03 7.11,3.4 11.07,3.39 2.31,-7.62 4.57,-15.22 6.43,-22.97 1,-0.42 2.01,-0.84 3.01,-1.26 0.56,0.36 1.12,0.75 1.67,1.15 -2.01,8.27 -4.57,16.44 -7.01,24.62 4.34,2.24 9.21,2.84 13.79,4.39 3.27,-8.65 5.55,-17.7 9.43,-26.09 2.03,-0.76 2.13,1.56 2.6,2.91 -0.89,5.68 -2.81,11.11 -4.19,16.67 -1.23,4 -3.04,8.27 -6.71,10.54 -5.06,-0.53 -9.67,-3.52 -14.86,-3.12 -1.75,0.11 -3.47,-0.16 -5.02,-1.02 -5.01,-2.48 -11.17,-2.02 -15.82,-5.2 -2.48,-1.56 -0.29,-4.3 0.38,-6.24 2.46,-7.18 5.47,-14.16 7.49,-21.49 z"
     id="path3513"
     inkscape:connector-curvature="0"
     style="fill:#0b0b0b" />
  <path
     d="m 605.09985,317.18089 c 5.47,-0.08 11.05,-0.65 16.39,0.81 9.96,0.23 19.93,-0.01 29.9,0.11 10.19,1.99 20.67,0.43 30.99,1.09 8.09,1.49 16.35,0.63 24.52,0.94 -1.6,5.65 -7.32,10.69 -13.42,9.99 -7.08,0.47 -14.01,-1.42 -21.07,-1.04 -19.81,0.09 -39.64,-0.14 -59.44,0.02 -1.16,-2.6 -3.84,-3.92 -5.62,-6.01 -1.09,-1.83 -1.76,-3.86 -2.25,-5.91 z"
     id="path3515"
     inkscape:connector-curvature="0"
     style="fill:#0b0b0b" />
  <path
     d="m 465.53985,318.76089 c 4.16,0.12 5.84,4.2 8.92,6.27 1.93,2.83 4.4,5.17 7.64,6.42 4.59,4.59 7.28,10.62 9.21,16.74 -0.8,4.57 -0.97,9.2 -0.93,13.83 -1.1,5.26 -2.45,10.8 -6.1,14.94 -5.96,10.13 -13.74,19.21 -18.29,30.14 -1.06,-0.01 -2.12,-0.01 -3.17,-0.02 -0.28,-0.58 -0.83,-1.75 -1.11,-2.33 1.64,-5.85 3.64,-11.6 6.39,-17.02 2.88,-4.11 4.23,-8.98 6.64,-13.35 1.44,-5 2.39,-10.43 1.1,-15.58 -0.84,-3.51 -0.23,-7.13 -0.47,-10.68 -1.35,-8.99 -10.78,-14.03 -11.98,-23.04 0.14,-2.24 1.32,-4.27 2.15,-6.32 z"
     id="path3517"
     inkscape:connector-curvature="0"
     style="fill:#0b0b0b" />
  <path
     d="m 733.63985,330.21089 c 4.87,-0.66 10.53,-0.31 14.02,3.59 2.32,3.94 5.01,8.86 2.93,13.45 -0.96,3.35 -3.89,5.47 -6.55,7.45 -2.68,2.18 -6.33,1.3 -9.49,1.3 -5.06,-1.34 -9.35,-5.77 -10.14,-10.99 -0.96,-6.14 3.17,-13.18 9.23,-14.8 z"
     id="path3519"
     inkscape:connector-curvature="0"
     style="fill:#0b0b0b" />
  <path
     d="m 615.47985,333.15089 c 8.31,0.16 16.76,-0.85 24.94,0.88 11.31,0.17 22.62,-0.09 33.93,0.12 8.21,1.82 16.7,0.55 25.04,0.94 0.15,13.33 -0.18,26.65 -0.01,39.96 -26.02,0.09 -52.02,-0.09 -78.03,0.06 -2.11,0.15 -4.1,-0.53 -6.07,-1.15 0.59,-13.58 -0.2,-27.21 0.2,-40.81 z"
     id="path3521"
     inkscape:connector-curvature="0"
     style="fill:#0b0b0b" />
  <path
     d="m 729.68985,336.33089 c 3.13,-2.65 7.87,-4.6 11.76,-2.29 3.69,1.35 5.33,5.39 5.92,9.01 -0.34,1.88 -0.87,3.72 -1.15,5.62 -1.76,1 -3.36,2.26 -5.16,3.18 -2.37,0.39 -4.83,0.34 -7.2,0.04 -3.05,-2.17 -5.9,-4.88 -6.54,-8.76 0.57,-2.33 1.33,-4.63 2.37,-6.8 z"
     id="path3523"
     inkscape:connector-curvature="0"
     style="fill:#fbfbfb" />
  <path
     d="m 434.51985,340.33089 c 4.78,-1.95 9.27,-5.59 14.76,-4.14 3.09,0.16 2.78,3.81 4.33,5.68 2.02,2.89 4.12,5.99 7.26,7.76 2.39,2.78 5.81,6.06 4.3,10.1 -0.85,3.22 -4.29,3.96 -6.78,5.5 -2.22,-2.72 -6.01,-1.53 -8.59,-3.54 -5.35,-3.54 -11.87,-5.88 -15.42,-11.57 -2.06,-2.97 -0.58,-6.63 0.14,-9.79 z"
     id="path3525"
     inkscape:connector-curvature="0"
     style="fill:#0b0b0b" />
  <path
     d="m 399.66985,339.35089 c 2.66,-1.48 5.82,-1.48 8.74,-2.18 3.55,1.08 7.24,0.85 10.9,1.02 4.03,1.55 6.58,5.19 8.14,9.06 0.28,2.39 -1.48,4.32 -2.42,6.36 -1.03,2.32 -2.15,4.61 -3.77,6.59 -2.59,0.25 -4.89,-0.64 -7.02,-2 -2.6,-0.24 -5.22,-0.09 -7.82,-0.14 0.02,-0.64 0.06,-1.92 0.08,-2.56 -3.6,1 -7.37,0.46 -11.04,0.58 -1.78,-3.21 0.1,-6.56 -0.01,-9.93 0,-2.83 2.12,-5.13 4.22,-6.8 z"
     id="path3527"
     inkscape:connector-curvature="0"
     style="fill:#0b0b0b" />
  <path
     d="m 501.64985,341.32089 c 2.1,-0.36 4.04,-1.26 5.87,-2.34 3.45,1.67 6.74,3.78 9.12,6.84 3.1,7.39 3.11,15.61 4.72,23.4 0.55,3.81 -1.16,7.53 -3.29,10.59 -2.41,1.26 -5.14,1.63 -7.68,2.48 -2.1,-1.29 -4.88,-2.34 -5.05,-5.19 -2.13,-5.01 -4.79,-9.94 -5.51,-15.43 -0.42,-4.04 -2.04,-8 -1.2,-12.09 -0.01,-3.05 1.88,-5.55 3.02,-8.26 z"
     id="path3529"
     inkscape:connector-curvature="0"
     style="fill:#0b0b0b" />
  <path
     d="m 629.40985,345.10089 c 4.31,-0.02 8.63,-0.06 12.95,0.06 0.08,7.28 0.08,14.56 0,21.84 -4.32,0.12 -8.64,0.07 -12.95,0.06 0,-7.32 0,-14.64 0,-21.96 z"
     id="path3531"
     inkscape:connector-curvature="0"
     style="fill:#fbfbfb" />
  <path
     d="m 653.69985,345.48089 c 3.16,-0.73 6.32,0.42 9.5,-0.07 0.27,0.17 0.82,0.52 1.09,0.7 -2.26,6.86 0.31,13.9 0.2,20.87 -3.31,0.11 -6.61,0.09 -9.91,0.08 -2.46,-6.88 -0.6,-14.41 -0.88,-21.58 z"
     id="path3533"
     inkscape:connector-curvature="0"
     style="fill:#fbfbfb" />
  <path
     d="m 677.44985,346.10089 c 3.29,-0.02 6.6,-0.02 9.9,0.05 0.11,6.95 0.06,13.91 0.04,20.86 -3.24,0.07 -6.48,0.07 -9.71,0.07 -0.71,-2.8 -1.9,-5.69 -0.86,-8.58 0.75,-1.82 0,-3.62 -0.25,-5.43 0.27,-2.33 0.54,-4.65 0.88,-6.97 z"
     id="path3535"
     inkscape:connector-curvature="0"
     style="fill:#fbfbfb" />
  <path
     d="m 572.42985,349.04089 c 7.15,3.35 13.29,8.35 20.39,11.86 -0.4,0.55 -1.19,1.67 -1.59,2.22 -5.68,-2.75 -10.98,-6.18 -16.62,-9.02 -2.17,2.43 -3.97,5.16 -5.71,7.91 -0.36,0.04 -1.07,0.12 -1.42,0.15 -3.26,-2.26 -6.5,-4.55 -10.11,-6.22 0.04,-0.81 0.13,-2.45 0.17,-3.27 3.4,1.47 6.26,3.95 9.69,5.43 2.62,-2.5 3.01,-6.28 5.2,-9.06 z"
     id="path3537"
     inkscape:connector-curvature="0"
     style="fill:#0b0b0b" />
  <path
     d="m 731.89985,363.98089 c 1.05,0.79 2.33,1.42 2.83,2.75 2.62,4.76 5.79,9.19 8.31,14 4.14,0.87 8.54,-0.06 12.77,0.58 0.22,0.7 0.66,2.09 0.88,2.78 -10.76,-0.02 -21.52,0.01 -32.27,-0.01 -2.01,0.01 -3.64,-1.41 -5.39,-2.17 1.37,-3.47 3.31,-6.58 5.97,-9.2 1.41,-3.55 4.28,-6.07 6.9,-8.73 z"
     id="path3539"
     inkscape:connector-curvature="0"
     style="fill:#0b0b0b" />
  <path
     d="m 397.57985,369.22089 c 2.65,-0.12 5.32,-0.32 7.85,-1.23 -0.01,0.84 -0.02,2.53 -0.02,3.38 1.03,-2.94 4.24,-2.54 6.75,-2.15 3.79,0.84 7.71,1.88 10.76,4.43 0.75,2.77 0.44,5.71 1.08,8.51 -1.55,7.11 -2.7,14.3 -4.01,21.47 -0.98,3.39 -0.46,6.95 -0.57,10.43 -1.55,1.12 -3.17,2.14 -4.81,3.1 -3.52,-1.47 -7.5,-2.21 -9.97,-5.41 -1.37,-5.12 -2.06,-10.7 -0.15,-15.79 0.48,0.29 1.43,0.87 1.91,1.16 0.03,-1.29 0.06,-2.56 0.09,-3.84 -0.44,0.18 -1.34,0.52 -1.79,0.69 -0.4,-2.82 -2.6,-4.74 -4.02,-7.06 -2.63,-3.88 -3.05,-8.72 -5.27,-12.79 0.76,-1.61 1.05,-3.48 2.17,-4.9 z"
     id="path3541"
     inkscape:connector-curvature="0"
     style="fill:#0b0b0b" />
  <path
     d="m 447.38985,370.08089 c 4.05,0.77 8.08,-2.28 11.84,0.14 1.4,3.8 2.84,7.71 3.19,11.77 -2.69,12.24 -8.3,23.66 -14.8,34.31 -1.69,2.11 -4.13,3.38 -6.23,5.01 -1.82,-0.65 -3.64,-1.27 -5.47,-1.82 -1.8,-6.26 -3.78,-13.03 -1.55,-19.44 -1.16,-2.59 -0.45,-5.2 -0.04,-7.84 -0.92,-3.18 -0.81,-6.5 -1.37,-9.73 -0.86,-2.58 0.28,-5.25 1.12,-7.68 3.5,-3.42 8.42,-5.26 13.31,-4.72 z"
     id="path3543"
     inkscape:connector-curvature="0"
     style="fill:#0b0b0b" />
  <path
     d="m 559.71985,368.81089 c 7.02,2.69 13.14,7.45 20.4,9.54 0.47,0.96 0.97,1.91 1.49,2.85 -0.5,0.83 -1.02,1.64 -1.56,2.45 -6.71,3.86 -13.09,8.3 -19.09,13.19 -1.18,0.19 -2.36,0.32 -3.54,0.4 0,-0.74 -0.01,-2.21 -0.01,-2.94 6.03,-4.81 12.29,-9.32 18.47,-13.93 -3.21,-1.87 -6.97,-2.59 -9.95,-4.86 -2.77,-1.14 -5.98,-1.55 -7.9,-4.11 0.42,-0.65 1.27,-1.95 1.69,-2.59 z"
     id="path3545"
     inkscape:connector-curvature="0"
     style="fill:#0b0b0b" />
  <path
     d="m 725.16985,376.89089 c 2.41,-2.59 4.37,-5.56 6.89,-8.05 2.63,4.01 5.42,7.94 7.95,12 -5.22,0.51 -10.52,0.42 -15.58,-1.1 -0.42,-1.14 -0.17,-2.09 0.74,-2.85 z"
     id="path3547"
     inkscape:connector-curvature="0"
     style="fill:#fbfbfb" />
  <path
     d="m 29.57985,371.34089 c 0.92,-2.3 4.48,-1.51 4.82,0.77 1.43,3.35 0.87,7.01 0.56,10.51 -1.32,5.51 0.35,11.3 -1.32,16.75 -0.75,2.86 0.24,5.73 0.95,8.49 4.74,1.77 9.83,1.14 14.77,1.16 -0.25,-10.63 0.65,-21.12 1.22,-31.69 0.88,-1.29 2.35,-1.96 3.65,-2.73 2.62,3.78 2.75,8.56 1.57,12.88 -1.28,7.11 0.93,14.62 -1.69,21.55 4.87,0.24 9.85,-0.55 14.61,0.82 1.43,0.31 2.9,0.02 4.34,-0.02 0.36,-6.95 1.91,-13.75 1.35,-20.75 0.52,-5.1 -1.38,-10.83 1.66,-15.37 0.98,-0.37 1.97,-0.69 2.97,-0.95 1.94,3.8 1.47,8.13 1.27,12.24 -1.98,7.17 0.05,14.72 -1.5,21.96 -0.79,2.9 0.44,5.75 0.52,8.66 -6.62,0.63 -13.5,1.06 -20.03,-0.45 -4.74,-0.36 -9.58,0.51 -14.22,-0.84 -5.75,-0.71 -11.6,0.28 -17.35,-0.65 -0.48,-2.96 -0.47,-5.97 0.45,-8.84 0.77,-7.94 -0.56,-16.03 1.03,-23.91 0.46,-3.18 -0.04,-6.41 0.37,-9.59 z"
     id="path3549"
     inkscape:connector-curvature="0"
     style="fill:#0b0b0b" />
  <path
     d="m 133.26985,388.90089 c 9.3,-3.36 16.81,-10.53 26.36,-13.2 -0.35,2.2 0.36,5.24 -1.96,6.57 -5.57,4.16 -12.18,6.66 -18.38,9.65 -3.48,2.99 -8.61,3.82 -11.36,7.63 7.38,1.82 14.27,4.97 21.37,7.62 4.94,1.92 10.26,2.68 15.1,4.89 2.37,1.14 4.97,1.65 7.41,2.59 0.85,1.34 0.54,3.05 0.82,4.55 -1.86,-0.16 -3.85,0.16 -5.55,-0.78 -3.53,-1.79 -7.51,-2.28 -11.1,-3.87 -5.58,-2.34 -11.26,-4.53 -17.17,-5.87 -5.06,-1.43 -9.9,-3.6 -15.04,-4.79 -0.95,-2.01 -3.28,-3.94 -2.15,-6.35 2.68,-4.17 6.99,-7.09 11.65,-8.64 z"
     id="path3551"
     inkscape:connector-curvature="0"
     style="fill:#0b0b0b" />
  <path
     d="m 208.62985,378.28089 c 4.5,-1.45 9.47,-1.84 14.03,-0.41 4.47,1.14 8.93,2.61 13.62,2.29 1.4,2.06 4.7,5.74 1.85,7.76 -6.93,0.24 -14.01,0.97 -20.81,-0.75 -5.64,-0.19 -11.28,-0.06 -16.92,-0.07 -3.12,-0.07 -5.83,2.02 -8.95,1.98 -3.9,-0.04 -7.83,0.22 -11.71,-0.17 -4.08,-2.06 -2.21,-7.71 1.03,-9.55 3.13,-0.89 6.37,0.01 9.48,0.49 3.44,0.43 6.71,-1.01 10.14,-0.78 2.77,0.05 5.59,0.14 8.24,-0.79 z"
     id="path3553"
     inkscape:connector-curvature="0"
     style="fill:#0b0b0b" />
  <path
     d="m 651.40985,388.08089 c 0.28,-3.77 3.83,-5.72 6.92,-7.1 2.71,0.84 5.12,2.28 7.1,4.34 -0.04,16.25 -0.01,32.5 -0.02,48.76 -0.01,6.35 0.07,12.74 -0.92,19.03 -0.19,9.65 -0.03,19.31 -0.08,28.97 -0.15,5.27 0.64,10.69 -1.21,15.77 -2.94,1.57 -6.08,2.7 -9.46,2.25 -1.36,-1.46 -2.75,-2.88 -4.17,-4.26 0.54,-3.64 -0.53,-7.34 0.52,-10.92 -0.38,-2.62 0.17,-5.19 0.29,-7.79 0.16,-17.72 -0.23,-35.47 0.3,-53.18 0.91,-11.9 0.73,-23.9 0.73,-35.87 z"
     id="path3555"
     inkscape:connector-curvature="0"
     style="fill:#0b0b0b" />
  <path
     d="m 616.50985,383.31089 c 1.67,-0.39 3.32,-0.89 4.96,-1.4 2.13,1.26 4.12,2.75 5.99,4.38 -0.12,12.28 -0.01,24.57 -0.05,36.85 -1.45,12.39 -0.92,24.96 -0.8,37.44 0.02,4.18 -0.19,8.39 0.66,12.51 -0.63,3.65 -1.18,7.4 0.09,10.99 -1.97,5.23 0.6,11.31 -2.99,16 -2.35,-0.01 -4.7,-0.01 -7.04,0 -2.27,-4.71 -2.47,-9.89 -2.11,-15 -1.24,-8.32 0.85,-16.62 0.05,-24.98 -1.51,-7.92 0.38,-15.94 0.06,-23.92 -0.35,-2.75 -1.05,-5.52 -0.28,-8.27 -0.19,-2.64 -0.38,-5.28 0.23,-7.9 -0.38,-7.97 0.33,-15.94 0.13,-23.92 0.19,-4.27 -0.69,-8.75 1.1,-12.78 z"
     id="path3557"
     inkscape:connector-curvature="0"
     style="fill:#0b0b0b" />
  <path
     d="m 635.68985,383.37089 c 2.76,-2.35 6.22,-0.85 9.13,0.33 1.79,4.26 1.42,8.9 0.65,13.35 -0.18,18.65 0.08,37.31 -0.13,55.95 -1.58,5.9 -0.71,12.05 -0.93,18.08 0.13,7.62 -0.34,15.28 0.38,22.89 -0.52,3.46 -3.01,8.29 -7.21,7.1 -1.65,-0.52 -2.75,-2 -4.1,-3 0.03,-3.38 -0.03,-6.77 -1.07,-10.01 1.23,-3.37 0.7,-6.93 0.67,-10.44 -0.66,-6.81 0.23,-13.59 0.26,-20.4 -1.26,-4.34 -0.94,-8.91 0,-13.27 0.25,-4.54 -1.32,-9.07 -0.42,-13.59 1.3,-8.32 -1.68,-16.63 -0.09,-24.92 0.82,-2.76 -0.8,-5.49 -0.44,-8.29 0.27,-4.68 -1.36,-10.71 3.3,-13.78 z"
     id="path3559"
     inkscape:connector-curvature="0"
     style="fill:#0b0b0b" />
  <path
     d="m 670.40985,385.29089 c 2.71,-3.44 7.17,-2.65 10.86,-1.69 0.32,12.15 0.05,24.32 0.14,36.48 -0.11,8.42 0.31,16.87 -0.47,25.27 0.16,7.57 -0.84,15.18 0.35,22.73 -1.35,5.23 -0.77,10.65 -0.88,16 0.09,4.36 -0.35,8.79 0.69,13.08 -0.23,0.91 -0.48,1.82 -0.75,2.73 -3.29,0.53 -6.61,1.92 -9.79,0.12 -0.98,-3.5 -1.6,-7.15 -0.95,-10.78 0.95,-4.5 -0.39,-9.14 0.54,-13.64 0.48,-2.19 -0.02,-4.38 -0.25,-6.55 -0.13,-6.23 0.5,-12.47 0.29,-18.7 -0.74,-2.4 0.28,-4.78 0.21,-7.2 0.02,-19.29 0.01,-38.57 0.01,-57.85 z"
     id="path3561"
     inkscape:connector-curvature="0"
     style="fill:#0b0b0b" />
  <path
     d="m 686.40985,385.54089 c 2.3,-1.11 4.25,-3.17 6.86,-3.55 1.78,1 3.43,2.22 5.18,3.29 -0.38,10.96 0.72,22 -0.86,32.89 -0.3,16.62 0.22,33.31 -0.67,49.87 0.97,6.65 0.29,13.39 0.5,20.08 0.23,3.83 -0.68,7.59 -1.6,11.27 -2.47,3.08 -7.1,1.64 -10.29,0.59 -0.25,-1.79 -1.15,-3.57 -0.54,-5.37 0.63,-2.44 -0.89,-4.85 -0.38,-7.3 0.78,-2.98 0.6,-6.09 0.77,-9.13 0.08,-16.72 -0.01,-33.44 0.04,-50.16 -0.03,-2.41 0.98,-4.78 0.19,-7.15 -1,-3.97 0.91,-7.85 0.3,-11.81 0.25,-7.84 0.72,-15.66 0.5,-23.52 z"
     id="path3563"
     inkscape:connector-curvature="0"
     style="fill:#0b0b0b" />
  <path
     d="m 512.29985,387.99089 c 2,-2.21 4.96,-2.83 7.8,-3.18 0.29,1.4 0.7,2.79 0.94,4.22 -0.94,4.6 -0.62,9.33 -0.57,14 0.89,5.76 3.74,11.11 4.01,17 1.41,7.93 1.39,16.18 0,24.1 -0.24,7.05 -2.39,13.79 -4.52,20.45 -1.02,1.82 -2.18,3.55 -3.46,5.2 -4.31,-3.45 -5.92,-9.73 -4.31,-14.92 0.51,-2.74 0.17,-5.56 -0.03,-8.31 -0.36,0.24 -1.07,0.74 -1.43,0.99 -1.79,9.84 -3.38,19.78 -6.62,29.24 -3.77,6.33 -4.71,13.95 -9.06,19.94 -2.32,5.15 -5.44,9.86 -8.31,14.71 -0.81,1.78 -2.88,2.42 -3.87,4.05 -2.36,4.47 -6.05,8 -8.81,12.21 -5.11,7.8 -11.62,14.57 -16.64,22.43 -1.41,3.35 -2.37,7.08 -1.9,10.74 1.66,6.4 7.76,10.33 13.6,12.48 3.57,4.41 7.67,8.45 10.85,13.21 1.97,5.7 5.65,10.57 7.84,16.16 3.77,8.5 8.98,16.38 11.65,25.34 1.91,4.88 3.4,9.9 5.08,14.86 1.5,3.41 0.79,7.21 0.66,10.81 -3.42,-1.23 -3.1,-5.18 -4.44,-7.95 -2.41,-5.38 -6.91,-9.6 -8.79,-15.25 -5.17,-5.12 -7.93,-12.19 -13.61,-16.82 -0.39,4.76 3.05,8.51 4.72,12.71 2.04,5.23 5.34,9.84 8.65,14.34 4.49,4.55 6.26,10.93 9.93,16.03 2.72,2.41 4.85,5.29 6.64,8.44 4.39,4.04 7.13,9.41 11.24,13.71 2.95,4.65 6.78,8.64 9.74,13.29 2.35,2.42 3.45,5.6 4.35,8.77 -2.76,-0.01 -5.73,0.61 -8.22,-0.88 -3.03,-1.67 -6.89,-1.61 -9.31,0.94 -3.15,-0.26 -6.48,1.06 -9.47,-0.1 -1.56,-1.91 -2.9,-4.02 -3.91,-6.26 -1.67,-8.16 -3.07,-16.56 -6.9,-24.03 -1.81,-8.48 -7.04,-15.51 -10.79,-23.15 -2.37,-3.32 -3.79,-7.45 -7.13,-9.98 -2.95,-3.84 -4.48,-8.59 -7.58,-12.34 -3.5,-4.3 -6.66,-8.93 -10.99,-12.46 -0.18,6.02 3.05,11.22 6.67,15.76 3.29,5.03 6.16,10.35 10.03,14.98 2.89,6.85 8.83,11.94 10.81,19.24 2.12,4.04 4.94,7.81 5.37,12.55 -0.95,0.38 -2.29,1.5 -3.07,0.21 -2.29,-2.31 -2.99,-5.66 -4.93,-8.22 -3.1,-4.36 -4.06,-10.18 -8.36,-13.62 -3.02,-4.13 -4.7,-9.08 -8.02,-12.99 -4.26,-6.01 -8.32,-12.24 -13.68,-17.33 -3.37,-4.87 -7.89,-8.73 -12,-12.96 -0.8,-1.17 -2.19,-1.26 -3.44,-1.51 -2.15,-5.69 -7.55,-8.95 -11.9,-12.79 4.67,-2.65 9.73,-5.7 11.63,-11.03 -0.84,-4.33 -3.12,-8.2 -5.15,-12.05 -3.39,1.48 -5.48,4.61 -8.27,6.88 -1.41,0.22 -2.83,0.2 -4.23,0.29 -3.67,-3.66 -6.72,-7.93 -8.73,-12.71 3.48,-1.13 7.09,-1.61 10.75,-1.42 2.26,-3.48 5.27,-7.26 9.63,-7.95 2.85,-0.15 3.56,-3.43 5.3,-5.15 -1.53,-1.56 -3.14,-3.02 -4.94,-4.24 -1.93,-1.22 -2.07,-3.81 -3.58,-5.4 -1.75,-2.42 -4.93,-2.49 -7.47,-3.53 -3.12,-1.03 -4.9,-4.01 -7.34,-6 2.61,-3.08 4.47,-6.69 6.68,-10.04 3.89,-5.56 1.44,-13.11 5.35,-18.69 4.35,-5.88 8.19,-12.28 10.85,-19.06 3.58,-4.48 5.84,-9.83 7.85,-15.15 3.43,-7.39 7.04,-14.69 11.41,-21.56 3.03,-6.47 4.96,-13.38 8.37,-19.69 1.86,-6.52 4,-12.99 6.8,-19.18 2.81,-5.9 7.89,-10.28 13.16,-13.95 7.01,-1.61 14.42,-1.78 21.06,-4.8 1.95,-1.52 4.12,-2.62 6.36,-3.63 z"
     id="path3565"
     inkscape:connector-curvature="0"
     style="fill:#0b0b0b" />
  <path
     d="m 206.40985,393.08089 c 6,-2.28 12.43,0 18.21,1.92 -1.69,5.51 -8.1,5.45 -12.75,6.53 -3.06,1.03 -6.59,-0.21 -9.37,1.68 -1.88,1.06 -4.19,0.86 -6.08,1.91 -2.11,1.12 -4.93,1.61 -6.82,-0.2 -2.38,-1.17 -2.86,-3.96 -4.19,-6.02 0.23,-1.61 0.81,-3.81 2.3,-4.61 6.19,-0.92 12.66,0.84 18.7,-1.21 z"
     id="path3567"
     inkscape:connector-curvature="0"
     style="fill:#0b0b0b" />
  <path
     d="m 237.34985,394.94089 c 3.27,-0.89 6.55,-2.22 10.01,-1.89 2.82,0.23 5.52,1.15 8.28,1.74 -2.09,3.05 -4.64,6.03 -8.27,7.21 -2.19,0.31 -2.55,3.59 -4.98,3.14 -2.12,0.38 -2.91,-1.83 -3.89,-3.22 -1.67,-1.96 -0.97,-4.65 -1.15,-6.98 z"
     id="path3569"
     inkscape:connector-curvature="0"
     style="fill:#0b0b0b" />
  <path
     d="m 585.58985,395.59089 c 2.94,2.67 1.65,6.94 1.71,10.43 -0.92,3.3 0.51,6.63 -0.34,9.95 -0.91,1.05 -1.98,2.37 -3.54,2.14 -8.44,-1.96 -17.18,-0.56 -25.75,-1.11 -0.26,-0.28 -0.78,-0.85 -1.04,-1.14 0.25,-4.59 0.85,-9.16 0.83,-13.77 -0.2,-1.37 0.76,-2.36 1.48,-3.37 0.86,1.09 1.84,2.12 2.56,3.34 -1.52,3.77 -1.05,7.86 -1.07,11.83 3.51,1.6 7.38,1.19 11.12,1.06 0.33,-3.63 -0.53,-7.29 0.38,-10.89 -0.27,-2.7 0.02,-5.47 2.12,-7.45 2.89,5.75 -0.72,12.15 0.72,18.22 3.19,0.32 6.41,0.25 9.63,0.28 0.05,-5.03 0,-10.05 -0.02,-15.07 -0.15,-1.61 0.59,-3.04 1.21,-4.45 z"
     id="path3571"
     inkscape:connector-curvature="0"
     style="fill:#0b0b0b" />
  <path
     d="m 729.74985,397.38089 c 2.81,-0.63 5.76,-0.27 8.63,-0.31 3.39,0.17 5.62,3.05 7.83,5.26 2.38,2.25 2.37,5.72 2.25,8.75 0.14,3.43 -2.36,6.23 -4.38,8.74 -2.45,1.29 -4.93,2.74 -7.66,3.31 -4.84,-0.41 -10.07,-1.92 -12.64,-6.42 -0.82,-2.57 -1.93,-5.09 -2.38,-7.75 -0.78,-3.83 2.75,-6.41 4.57,-9.34 0.65,-1.55 2.37,-1.72 3.78,-2.24 z"
     id="path3573"
     inkscape:connector-curvature="0"
     style="fill:#0b0b0b" />
  <path
     d="m 732.82985,400.42089 c 3.46,-1.25 6.99,0.58 9.83,2.44 3.11,4.01 4.48,10.89 -0.12,14.35 -2.35,3.13 -6.63,1.55 -9.95,1.8 -3.42,-1.67 -7.36,-4.18 -7.86,-8.35 -1.47,-5.08 3.27,-9.68 8.1,-10.24 z"
     id="path3577"
     inkscape:connector-curvature="0"
     style="fill:#fbfbfb" />
  <path
     d="m 405.64985,401.26089 c 0.63,0.63 0.63,0.63 0,0 z"
     id="path3579"
     inkscape:connector-curvature="0"
     style="fill:#fbfbfb" />
  <path
     d="m 209.46985,407.15089 c 7.86,1.27 15.22,-5.61 22.87,-2.18 -0.38,0.95 -0.75,1.91 -1.11,2.88 -1.83,0.44 -3.65,0.94 -5.42,1.58 -2.69,2.34 -5.1,5.27 -8.59,6.45 -1.63,0.42 -3.25,0.87 -4.86,1.37 -1.99,-1.07 -4.15,-2.18 -4.74,-4.57 -1.11,-2.12 0.58,-4 1.85,-5.53 z"
     id="path3581"
     inkscape:connector-curvature="0"
     style="fill:#0b0b0b" />
  <path
     d="m 392.88985,405.62089 c 3.71,1.36 3.9,5.51 5.36,8.63 1.7,5.74 8.47,9.65 7.16,16.27 0.41,-0.67 1.25,-2.02 1.66,-2.69 3,2.91 3.95,6.88 3.32,10.95 -0.77,0.68 -1.53,1.38 -2.29,2.08 -2.33,-0.44 -4.32,0.92 -6.47,1.56 -2.91,-4.25 -2.22,-9.95 -5.54,-14.01 -2.62,-2.74 -3.03,-6.6 -3.94,-10.1 -1.07,-4.16 -1.45,-8.82 0.74,-12.69 z"
     id="path3583"
     inkscape:connector-curvature="0"
     style="fill:#0b0b0b" />
  <path
     d="m 220.94985,418.67089 c 4.33,-1.58 8.41,-3.77 12.65,-5.56 3.12,-1.05 4.21,2.45 5.13,4.67 2.13,6.83 8.44,12.45 7.64,20.1 -0.14,3.34 -4.56,1.71 -6.76,2.4 -4.5,1.88 -9.23,3.3 -14.08,3.84 -1.68,-0.98 -3.52,-1.9 -4.82,-3.37 -0.87,-3.16 -2.43,-6.38 -1.65,-9.72 0.21,-2.16 -1.47,-4.42 -0.24,-6.48 1.13,-1.8 1.69,-3.83 2.13,-5.88 z"
     id="path3585"
     inkscape:connector-curvature="0"
     style="fill:#0b0b0b" />
  <path
     d="m 375.43985,419.09089 c 2.21,-1.03 4.58,-1.7 6.74,-2.86 1,0.69 2.08,1.29 2.99,2.11 1.64,6.98 2.17,14.3 5.11,20.9 1.58,4.8 3.69,9.42 6.18,13.83 1.98,4.07 3.22,9.35 0.32,13.31 -2.28,3.1 -4.75,6.04 -6.75,9.33 -6.01,4.96 -11.72,10.29 -17.5,15.52 -5.32,2.99 -10.99,5.48 -15.61,9.56 -7,-0.06 -12.38,5.01 -18.81,6.99 -5.72,1.71 -10.38,5.57 -15.61,8.34 -3.62,3.43 -6.79,8.48 -5.91,13.69 1.87,5.97 2.12,12.26 3.82,18.27 1.6,9.55 8.54,17.13 10.46,26.58 1.3,3.3 1.7,6.77 1.67,10.3 1.08,4.23 0.97,8.6 1.21,12.93 1.76,7.37 -1.14,14.76 -1.36,22.15 -0.3,2.96 -0.68,6.21 -2.72,8.54 -2.17,-5.15 -3.57,-10.6 -4.7,-16.06 -2.33,-6.66 -2.4,-13.83 -4.86,-20.45 -0.76,-0.01 -2.3,-0.01 -3.06,-0.01 2.05,3.35 2.74,7.05 2.46,10.95 1.29,4.53 0.65,9.25 1.11,13.87 1.4,5.02 3.11,9.97 5.31,14.7 1.94,3.16 3.71,6.67 3.49,10.5 -0.26,6.17 3.31,11.77 3.03,17.96 0,6.48 5.35,10.98 7.17,16.87 1.07,2.99 2.57,5.88 3,9.07 -1.98,3.64 -5.83,5.51 -9.31,7.42 -0.36,-0.49 -1.08,-1.47 -1.43,-1.96 -7.23,-2.13 -14.79,-2.97 -22.28,-2.15 -8.08,2.33 -16.21,4.32 -24.32,6.53 -1.9,0.05 -3.79,0.11 -5.68,0.11 -3.14,-0.8 -6.07,-2.26 -9.26,-2.86 -3.67,0.14 -7.05,2.18 -10.76,2.07 -2.62,-0.79 -4.51,-2.84 -6.39,-4.71 3.53,-4.06 9.32,-2.6 13.69,-4.92 5.22,-1.56 10.67,-2.19 16.06,-2.73 3.35,-1.79 6.12,-4.77 10.1,-5.08 4.6,-3.13 10.58,-4.34 14.04,-8.98 1.99,-4.83 4.82,-9.71 3.61,-15.11 -1.25,-3.9 -1.68,-8 -2.94,-11.89 -3.38,-8.47 -5.02,-17.6 -9.14,-25.8 -2.12,-4.6 -1.76,-9.82 -3.59,-14.49 -3.11,-8.71 -4.64,-17.85 -7.24,-26.72 -0.97,-7.27 -0.96,-15.39 3.8,-21.47 1.38,-3.06 4.75,-4.91 5.34,-8.29 -2.2,-5.94 -3.13,-12.38 -2.29,-18.68 0.69,-3.01 1.65,-5.98 1.83,-9.09 0.13,-4.65 4.87,-7.7 4.05,-12.53 -5.38,-2.16 -9.24,-6.7 -14.42,-9.21 0.57,-1.64 1.28,-3.22 1.92,-4.82 4.28,-0.71 7.45,-3.79 11.05,-5.92 2.91,-1.79 2.7,-5.73 4.62,-8.3 6.39,-5.22 12.76,-10.83 17.09,-17.94 3.48,-4.58 8.84,-7.13 12.86,-11.14 7.1,-5.64 13.5,-12.18 21.6,-16.44 6.18,-4.88 13.65,-7.54 20.21,-11.79 z"
     id="path3587"
     inkscape:connector-curvature="0"
     style="fill:#0b0b0b" />
  <path
     d="m 59.36985,426.99089 c 3.09,-1.65 6.63,-2.08 9.74,-3.68 1.24,0.73 2.5,1.45 3.75,2.21 -0.92,1.38 -1.85,2.81 -3.17,3.87 -8.96,5.03 -18.75,8.23 -28.24,12.07 -0.48,2.63 2.91,2.42 4.59,2.99 3.54,1.76 6.67,4.41 10.58,5.4 2.42,0.54 4.66,1.59 6.93,2.58 -0.23,1.62 0.16,3.48 -0.78,4.92 -5.13,3.91 -10.03,8.12 -14.92,12.33 -0.2,0.54 -0.6,1.62 -0.79,2.16 8.51,0.34 16.8,2.75 25.29,3.28 8.96,1.2 17.88,2.71 26.81,4.13 0.47,0.95 0.95,1.91 1.45,2.87 -0.36,0.49 -1.07,1.47 -1.42,1.96 -3.67,0.13 -7.34,0.06 -10.9,-0.89 -4.61,0.11 -9.06,-1.17 -13.64,-1.36 -4.73,-1.29 -9.72,-0.18 -14.42,-1.65 -4.55,-1.38 -9.35,-0.86 -13.95,-1.96 -3.53,-0.73 -7.46,-0.27 -10.54,-2.45 -1.99,-1.05 -1.75,-4.22 -0.24,-5.58 6.2,-5.06 13.25,-9.16 18.38,-15.44 -4.41,-0.81 -7.67,-4.25 -12.02,-5.13 -4.25,-1.63 -8.22,-3.89 -12.45,-5.56 0,-1.54 0,-3.08 0,-4.61 3.63,-0.94 6.82,-3.05 10.5,-3.87 6.03,-3.82 13.04,-5.56 19.46,-8.59 z"
     id="path3589"
     inkscape:connector-curvature="0"
     style="fill:#0b0b0b" />
  <path
     d="m 489.41985,447.14089 c -0.52,-7.89 2,-15.49 3.89,-23.03 4.63,7.34 1.26,16.24 0.17,24.11 1.02,5.84 -0.69,11.67 -1.5,17.45 -2.02,7.89 -4.3,15.71 -6.43,23.58 -1.02,3.89 -4.3,6.61 -5.65,10.36 -4.67,6.33 -9.41,12.58 -13.36,19.39 -0.24,-2.78 0.66,-5.44 1.87,-7.89 2.18,-4.4 3.79,-9.03 5.44,-13.64 2.39,-3.43 4.73,-6.94 5.97,-10.99 3.66,-7.52 7.21,-15.57 7.17,-24.09 0.72,-5.1 2.02,-10.12 2.43,-15.25 z"
     id="path3591"
     inkscape:connector-curvature="0"
     style="fill:#fbfbfb" />
  <path
     d="m 439.99985,427.66089 c 4.6,-1.86 9.98,-1.78 14.48,0.39 0.29,7.2 -2.3,14.05 -4.19,20.88 -2.44,1.35 -5.06,1.35 -7.23,-0.52 -1.81,-3.71 -3.12,-7.65 -4.74,-11.44 -2.54,0.01 -5.04,0.45 -7.34,1.55 0.09,1.51 0.36,3.14 -0.56,4.48 -2.3,4.43 -3.49,10.63 -9.11,12.01 -4.27,2.37 -9.19,1.88 -13.75,3.26 -1.33,-0.95 -2.68,-1.85 -4,-2.77 -0.66,-1.72 0.32,-3.39 0.88,-4.97 1.23,-0.07 2.45,-0.21 3.68,-0.37 0.7,-1.13 1.32,-2.3 2.14,-3.35 4.44,-2.16 8.4,-5.18 12.37,-8.1 -1.85,-1.8 -3.61,-3.96 -6.42,-3.99 -0.07,-2.24 0.82,-4.15 2.41,-5.7 7.12,-0.26 14.51,1.09 21.38,-1.36 z"
     id="path3593"
     inkscape:connector-curvature="0"
     style="fill:#0b0b0b" />
  <path
     d="m 569.70985,428.48089 c 5.21,-0.24 10.23,3.08 12.61,7.65 3.29,6.9 -1.21,15.34 -8.04,17.86 -3.36,0.1 -6.87,0.53 -10.12,-0.45 -2.06,-1.31 -3.56,-3.36 -5.36,-5 -0.92,-2.45 -1.96,-4.89 -2.43,-7.46 0.64,-6.72 6.97,-11.67 13.34,-12.6 z"
     id="path3595"
     inkscape:connector-curvature="0"
     style="fill:#0b0b0b" />
  <path
     d="m 727.51985,434.21089 c 1.37,-1.14 2.66,-2.38 3.98,-3.58 4.57,4.3 8.86,8.84 12.37,14.06 3.27,0.95 6.86,-0.03 10.25,0.52 1.57,0.76 1.9,3.1 -0.02,3.64 -4.32,0.72 -8.75,-0.22 -13.07,0.43 -3.26,3.77 -6.06,7.95 -9.7,11.37 -3.6,-4.29 -7.07,-8.67 -10.39,-13.18 -0.7,-0.22 -2.1,-0.67 -2.8,-0.89 0.39,-1.11 -0.02,-2.73 1.18,-3.38 3.43,-2.33 4.84,-6.59 8.2,-8.99 z"
     id="path3597"
     inkscape:connector-curvature="0"
     style="fill:#0b0b0b" />
  <path
     d="m 568.82985,432.38089 c 3.79,-1.21 7.82,1.32 10.34,4.01 0.44,3.1 1.53,6.29 -0.01,9.28 -1.63,1.49 -3.22,3.06 -5.11,4.22 -3.38,0.17 -7.31,0.97 -10.24,-1.14 -2.23,-2.69 -3.46,-6.13 -2.44,-9.58 -0.07,-4.22 4.44,-5.23 7.46,-6.79 z"
     id="path3599"
     inkscape:connector-curvature="0"
     style="fill:#fbfbfb" />
  <path
     d="m 724.15985,443.02089 c 2.53,-2.74 4.42,-6.02 7.28,-8.47 2.86,3.19 5.84,6.51 7.34,10.61 -1.95,-0.09 -3.91,-0.13 -5.77,-0.7 -2.93,-0.8 -6.15,0.21 -8.85,-1.44 z"
     id="path3601"
     inkscape:connector-curvature="0"
     style="fill:#fbfbfb" />
  <path
     d="m 568.88985,436.05089 c 1.02,0 2.05,0 3.08,0.03 0.8,0.81 1.62,1.62 2.45,2.43 -0.01,1.05 -0.02,2.11 -0.01,3.17 -1.36,1.28 -2.68,2.61 -4.03,3.91 -1.41,-1.41 -2.8,-2.84 -4.2,-4.25 1,-1.71 1.91,-3.47 2.71,-5.29 z"
     id="path3603"
     inkscape:connector-curvature="0"
     style="fill:#0b0b0b" />
  <path
     d="m 156.23985,448.97089 c 2.98,-2.01 5.38,-4.7 7.96,-7.17 1.15,0.64 2.3,1.27 3.47,1.89 0.03,3.95 -3.6,6.16 -5.33,9.34 -1.37,1.67 -3.25,2.93 -5.02,4.19 -2.05,0.19 -2.66,-2.04 -3.8,-3.27 -4.02,-3.32 -9.54,-4.5 -14.63,-3.58 -2.02,1.35 -4.14,2.55 -6.07,4.03 -1.07,1.7 -2.02,3.47 -3.04,5.21 -0.36,3.09 -1.26,6.14 -1.35,9.26 2.93,3.5 3.36,9.56 8.39,10.83 4.07,1.49 8.74,1.21 12.62,-0.65 2.46,-2.54 5.2,-4.79 7.07,-7.84 1.86,0.69 3.8,1.21 5.5,2.27 3.6,2.45 8.23,2.9 11.54,5.84 -0.19,1.66 0.23,3.67 -1.46,4.7 -5.02,0.96 -8.8,-3.52 -13.66,-4.05 -1.91,1.06 -3.08,3.08 -4.99,4.17 -6.42,3.54 -14.81,4.26 -21.1,0.03 -5.31,-2.06 -7.64,-7.66 -9.35,-12.65 -2.1,-7.34 0.71,-15 4.86,-21.06 3.6,-2.66 7.81,-4.39 11.91,-6.1 5.99,-1.52 11.46,1.86 16.48,4.61 z"
     id="path3605"
     inkscape:connector-curvature="0"
     style="fill:#0b0b0b" />
  <path
     d="m 726.36985,446.90089 c 3.65,0.33 7.36,2.13 10.97,0.55 0.36,0.41 1.08,1.24 1.44,1.66 -2.23,1.02 -3.63,2.96 -4.69,5.09 -3.44,0.59 -5.36,-2.36 -7.61,-4.36 -0.03,-0.73 -0.08,-2.2 -0.11,-2.94 z"
     id="path3607"
     inkscape:connector-curvature="0"
     style="fill:#fbfbfb" />
  <path
     d="m 376.82985,459.48089 c 2.27,-1.61 4.18,-3.75 6.76,-4.91 -1.06,5.32 -3.53,10.47 -8.02,13.72 -6.2,4.17 -11.98,9.08 -18.92,12.03 -3.98,3.15 -10.03,2.63 -13.19,6.82 -2.37,1.98 -4.7,4.01 -7.25,5.77 -2.5,1.83 -3.85,4.83 -6.57,6.4 -2.81,1.59 -5.63,3.17 -8.32,4.97 -0.44,-0.34 -1.34,-1.03 -1.78,-1.37 2.04,-5.9 8.43,-8.72 12.4,-13.24 2.47,-4.21 8.29,-4.08 11.23,-7.85 2.29,-3.16 6.38,-3.5 9.32,-5.76 8.07,-5.62 17.22,-9.67 24.34,-16.58 z"
     id="path3611"
     inkscape:connector-curvature="0"
     style="fill:#fbfbfb" />
  <path
     d="m 436.71985,456.16089 c 0.59,0.09 1.77,0.26 2.36,0.35 0.92,3.73 -0.3,7.35 -1.32,10.91 -1.11,3.71 0.86,8.04 -1.66,11.34 -1.36,1.69 -3,3.13 -4.53,4.65 -1.76,-1.44 -3.75,-2.56 -5.45,-4.05 -0.67,-1.38 -1.11,-2.84 -1.71,-4.23 1.72,-3.86 2.57,-8.28 5.64,-11.38 1.94,-2.77 4.3,-5.19 6.67,-7.59 z"
     id="path3613"
     inkscape:connector-curvature="0"
     style="fill:#0b0b0b" />
  <path
     d="m 409.02985,468.64089 c 2.6,-4.51 7.34,-7.07 12,-8.94 0.37,1.47 0.81,2.94 1.17,4.44 -1.75,5.31 -3.56,10.62 -4.95,16.05 -3.16,-0.08 -6.63,0.34 -9.27,-1.8 -1.35,-3.15 -1.53,-7.14 1.05,-9.75 z"
     id="path3615"
     inkscape:connector-curvature="0"
     style="fill:#0b0b0b" />
  <path
     d="m 557.79985,463.38089 c 4.18,-0.65 8.4,0.21 12.59,-0.36 2.73,-0.43 5.32,0.4 7.58,1.9 -2.15,0.82 -4.4,1.32 -6.56,2.11 0.01,5 -0.04,9.99 0.04,14.99 4.69,-0.2 9.32,0.45 13.96,1.07 -0.1,0.62 -0.3,1.84 -0.4,2.45 -8.44,-1.1 -16.91,-0.22 -25.32,0.39 -0.86,-0.91 -1.7,-1.81 -2.55,-2.7 3.58,-1.47 7.45,-1.17 11.23,-1.2 0.41,-5.09 -0.79,-10.38 0.85,-15.29 -3.86,-1.19 -7.96,-0.45 -11.92,-0.67 0.13,-0.67 0.37,-2.02 0.5,-2.69 z"
     id="path3617"
     inkscape:connector-curvature="0"
     style="fill:#0b0b0b" />
  <path
     d="m 725.79985,468.49089 c 0.75,-1.13 1.72,-2.09 2.63,-3.09 3.78,5.7 8.27,10.88 12.34,16.38 4.08,2.39 9.07,0.96 13.56,1.12 -0.44,1.06 -0.85,2.13 -1.24,3.22 -11.67,-0.14 -23.34,0.09 -35.01,-0.13 0.29,-1.68 0.28,-3.48 1.34,-4.9 2.58,-3.95 4.74,-8.18 6.38,-12.6 z"
     id="path3619"
     inkscape:connector-curvature="0"
     style="fill:#0b0b0b" />
  <path
     d="m 727.99985,471.56089 c 3.61,2.84 5.66,7.1 8.67,10.52 -4.43,-0.03 -8.85,-0.02 -13.27,0 1.98,-3.3 3.23,-6.94 4.6,-10.52 z"
     id="path3621"
     inkscape:connector-curvature="0"
     style="fill:#fbfbfb" />
  <path
     d="m 559.35985,506.44089 c 6.02,-1.87 10.08,-7.3 16.3,-8.79 -0.14,0.74 -0.41,2.2 -0.55,2.93 -3.83,2.18 -7.2,5.01 -11.15,6.99 1.72,2.76 4.96,3.83 7.4,5.81 -0.43,4.64 -5.48,6.94 -8.52,9.93 4.82,2.55 10.02,4.28 15.09,6.26 2.06,1.22 4.12,2.52 6.56,2.82 -0.02,0.73 -0.06,2.19 -0.07,2.92 -3.74,-1.41 -7.63,-2.38 -11.3,-3.93 -4.56,-2.97 -9.94,-4.11 -15.05,-5.73 1.13,-5.05 6.58,-7.11 9.89,-10.53 -2.47,-2.62 -5.59,-4.45 -8.62,-6.31 0.01,-0.59 0.01,-1.78 0.02,-2.37 z"
     id="path3623"
     inkscape:connector-curvature="0"
     style="fill:#0b0b0b" />
  <path
     d="m 716.49985,500.87089 c 0.56,-1.1 1.11,-2.2 1.67,-3.29 1.62,2.8 4.93,3.52 7.39,5.35 3.48,2.8 8.12,3.55 11.68,6.29 1.93,1.6 6.23,2.14 5.08,5.52 -6.07,5.9 -15.19,7.38 -21.36,13.16 -1.31,0.16 -2.61,0.25 -3.91,0.26 0.76,-1.94 1.33,-4.27 3.67,-4.79 6.18,-2.51 11.5,-6.44 17.14,-9.91 -3.99,-2.37 -8.42,-3.95 -12.25,-6.58 -2.98,-2.22 -7.11,-2.58 -9.11,-6.01 z"
     id="path3625"
     inkscape:connector-curvature="0"
     style="fill:#0b0b0b" />
  <path
     d="m 280.03985,500.66089 c 2.72,-1.78 5.61,0.54 8.03,1.75 1.17,2.27 3.03,4.71 2.19,7.43 -1.33,4.45 -2.62,8.92 -3.66,13.45 -0.63,4.53 0.46,9.22 -0.81,13.68 -1.41,-0.37 -2.83,-0.73 -4.25,-1.04 -0.72,-2.3 -1.46,-4.6 -2,-6.95 0.66,-4.3 1.45,-8.59 1.91,-12.91 0.62,-4.43 -3,-7.72 -5.32,-11.03 1.1,-1.62 1.92,-3.66 3.91,-4.38 z"
     id="path3627"
     inkscape:connector-curvature="0"
     style="fill:#0b0b0b" />
  <path
     d="m 609.49985,514.06089 c -1.54,-2.49 -1.48,-6.39 2.03,-6.91 19.95,-0.17 39.92,-0.02 59.88,-0.07 5.26,0.14 10.56,-0.3 15.81,0.22 3.16,1.36 6.28,-1.05 9.49,0.2 4.33,-0.46 8.55,0.85 12.76,1.79 0.46,1.71 0.57,3.65 -0.72,5.06 -2.91,1.51 -6.21,1.41 -9.32,0.76 -26.01,-0.07 -52.01,-0.01 -78.02,-0.03 -3.99,-0.1 -8.11,0.51 -11.91,-1.02 z"
     id="path3629"
     inkscape:connector-curvature="0"
     style="fill:#0b0b0b" />
  <path
     d="m 177.22985,515.83089 c 2.25,-2.31 6.39,0.19 6.12,3.27 0.04,8.4 1.11,16.75 2.17,25.07 3.89,-0.64 7.84,-0.51 11.72,-1.19 1.82,1.73 2.61,4.02 1.9,6.48 -6.34,2.22 -13.02,2.98 -19.71,2.66 -3.94,0.75 -7.91,1.11 -11.93,1.07 -4.96,1.36 -10.11,0.78 -15.18,0.91 -1.62,-0.08 -3.6,0.17 -4.84,-1.11 -1.55,-1.31 -1.27,-3.6 -0.86,-5.35 5.96,-4.46 10.47,-10.51 16.29,-15.13 4.69,-5.64 10.23,-10.56 14.32,-16.68 z"
     id="path3633"
     inkscape:connector-curvature="0"
     style="fill:#0b0b0b" />
  <path
     d="m 191.41985,524.31089 c 3.68,-3.14 7.5,-6.19 11.88,-8.32 0.39,1.33 0.94,2.63 1.17,4.02 -0.98,3.15 -4.31,4.42 -6.29,6.85 -1.6,2.11 -4.58,0.92 -6.82,1.17 0.01,-1.25 0.03,-2.49 0.06,-3.72 z"
     id="path3635"
     inkscape:connector-curvature="0"
     style="fill:#0b0b0b" />
  <path
     d="m 66.20985,521.89089 c 0.64,-3.09 4.09,-4.89 7.02,-4.81 5.85,0.99 6.88,9.24 3.21,13.03 -1.51,2.24 -4.43,1.98 -6.8,2.04 -2.68,-2.53 -5.22,-6.56 -3.43,-10.26 z"
     id="path3637"
     inkscape:connector-curvature="0"
     style="fill:#0b0b0b" />
  <path
     d="m 613.51985,521.47089 c 1.85,-2.63 5.07,-3.49 8.02,-4.23 5.53,1.36 11.26,0.7 16.9,0.83 2.88,0.2 5.66,-1.67 8.52,-0.63 3.06,0.95 6.29,0.56 9.45,0.64 5.66,-0.07 11.33,0.15 16.99,-0.12 5.69,-1.05 11.54,-1.23 17.24,-0.09 3.26,0.73 6.44,-0.34 9.63,-0.84 2.69,1.02 4.84,3.79 4.3,6.85 -1.6,0.96 -3.08,2.54 -5.11,2.22 -27.37,-0.07 -54.74,0.05 -82.1,-0.05 -2.38,0.21 -4.77,-2.21 -3.84,-4.58 z"
     id="path3639"
     inkscape:connector-curvature="0"
     style="fill:#0b0b0b" />
  <path
     d="m 171.56985,532.23089 c 1.86,-1.35 3.18,-6.36 5.72,-2.91 -0.04,5.21 0.26,10.34 1.35,15.44 -6.69,1.9 -13.65,1.21 -20.5,1.32 4.37,-4.72 7.84,-10.37 13.43,-13.85 z"
     id="path3643"
     inkscape:connector-curvature="0"
     style="fill:#fbfbfb" />
  <path
     d="m 633.32985,530.09089 c 8.35,-0.1 16.77,0.39 25.05,-0.98 14.09,-0.04 28.19,-0.08 42.28,0.02 -0.38,2.33 0.29,5.72 -2.57,6.67 -3.53,0.58 -7.14,0.15 -10.7,0.29 -5.76,0.57 -11.57,-2.54 -17.18,-0.13 -4.3,0.91 -4.46,6.5 -2.77,9.76 1.39,0.37 2.77,0.82 4.13,1.36 3.55,-1.58 6.55,-4.14 9.97,-5.93 4.71,0.18 10.6,-1.46 14.16,2.61 3.09,2.71 3.25,7.13 2.39,10.86 -0.43,1.61 -2.07,2.54 -3.67,2.45 -8.4,0.15 -16.82,-0.22 -25.21,0.21 -2.51,-0.07 -5.07,-0.41 -7.51,0.34 -1.29,-1.42 -3.1,-1.61 -4.9,-1.65 -0.89,1.01 -1.78,2.02 -2.66,3.04 3.19,-0.02 6.43,-0.16 9.52,0.84 6.96,0.87 14.12,-0.7 21,0.95 6.27,-0.63 12.78,1.45 18.98,-0.56 5.3,-0.63 8.1,7.75 3.6,10.64 -3.65,2.72 -8.68,0.6 -12.81,0.23 -24.7,-0.1 -49.4,0.04 -74.1,-0.07 -4.46,-0.59 -9.85,-0.33 -12.87,-4.31 -0.34,-2.39 1.15,-5.33 3.61,-5.96 2.99,-1.02 6.08,-1.71 9.04,-2.82 0.83,-2.79 1.1,-6.95 4.34,-7.85 3.2,0.97 6.55,1.24 9.88,0.89 2.11,-1.03 4.76,-2.17 5.18,-4.76 0.52,-2.66 3.36,-3.26 5.54,-3.97 1.97,1.87 4.13,3.58 6.51,4.91 1.74,-0.05 3.34,-0.83 4.98,-1.36 -0.09,-2.51 -0.66,-4.95 -1.29,-7.36 -4.36,-2.79 -9.56,-2.8 -14.53,-2.1 -2.48,1.06 -4.13,3.41 -6.67,4.34 -2.23,0.77 -4.36,1.81 -6.6,2.52 -5.39,-2.56 -2.99,-10.06 -0.19,-13.83 1.98,0.49 4.02,0.78 6.07,0.71 z"
     id="path3645"
     inkscape:connector-curvature="0"
     style="fill:#0b0b0b" />
  <path
     d="m 567.75985,538.46089 c 6.15,-1.97 13.57,1.68 15.27,8 3.06,5.66 -0.34,12.62 -4.95,16.37 -3.33,1.57 -7.26,3.28 -10.85,1.46 -5.21,-1.3 -8.41,-6.41 -9.76,-11.27 0.87,-5.95 3.65,-13.3 10.29,-14.56 z"
     id="path3647"
     inkscape:connector-curvature="0"
     style="fill:#0b0b0b" />
  <path
     d="m 281.46985,539.87089 c 3.3,-0.13 6.31,1.45 8.31,4.03 -1.88,2.57 -3.03,6.13 -6.32,7.25 -1.81,-0.3 -1.98,-2.23 -2.48,-3.63 -0.95,-2.49 -0.88,-5.34 0.49,-7.65 z"
     id="path3649"
     inkscape:connector-curvature="0"
     style="fill:#0b0b0b" />
  <path
     d="m 717.43985,540.96089 c 2.63,-0.31 5.24,0.18 7.88,0.12 9.25,-1.9 18.82,-0.64 28.22,-1 -0.18,1.25 -0.37,2.51 -0.55,3.77 -5.56,0.63 -11.04,-1.39 -16.52,0.12 -4.89,-1.05 -10.11,-1.18 -14.92,0.3 -0.33,4.53 -1.86,8.99 -0.79,13.57 4.01,0.46 8.11,-0.2 12.06,0.8 2.57,0.61 5.23,0.4 7.85,0.53 -0.2,0.67 -0.62,2.01 -0.83,2.68 -7.47,0.52 -14.96,0.09 -22.43,0.24 0.02,-7.05 -0.05,-14.09 0.03,-21.13 z"
     id="path3651"
     inkscape:connector-curvature="0"
     style="fill:#0b0b0b" />
  <path
     d="m 562.65985,546.46089 c 1.79,-2.37 4.23,-4.1 6.74,-5.62 3.47,1 6.83,2.41 9.72,4.64 0.89,1.49 1.42,3.17 1.92,4.84 0.16,6.19 -6.01,12.15 -12.37,10.72 -1.61,-1.18 -3.22,-2.36 -4.92,-3.4 -2.12,-3.33 -2.27,-7.49 -1.09,-11.18 z"
     id="path3655"
     inkscape:connector-curvature="0"
     style="fill:#fbfbfb" />
  <path
     d="m 412.75985,542.36089 c 4.59,0.75 8.54,3.43 11.87,6.56 2.52,2.35 2.41,6.86 -0.81,8.55 -1.89,0.97 -2.48,3 -2.92,4.92 -2.11,0.69 -4.05,2.68 -6.26,2.52 -4.56,-4.99 -6.21,-11.92 -5.03,-18.51 0.81,-1.53 2.1,-2.7 3.15,-4.04 z"
     id="path3657"
     inkscape:connector-curvature="0"
     style="fill:#0b0b0b" />
  <path
     d="m 299.51985,556.10089 c 0.41,-0.01 1.23,-0.01 1.64,-0.01 1.94,3.71 1.05,7.99 1.25,11.99 0.18,8.14 -0.75,16.45 1.55,24.39 0.73,7.37 3.51,14.26 5.86,21.22 2.15,6.15 2.51,12.71 4,19.01 0.54,1.76 0.46,3.61 0.37,5.43 -2.17,-3.72 -3.53,-7.86 -4.89,-11.93 -2.42,-10.38 -8.22,-19.72 -9.8,-30.34 -3.53,-12.81 -5.02,-27.19 0.02,-39.76 z"
     id="path3659"
     inkscape:connector-curvature="0"
     style="fill:#fbfbfb" />
  <path
     d="m 556.03985,582.07089 c 3.64,-3.41 6.68,-7.38 9.4,-11.54 4.3,2.11 5.31,7.72 9.5,10 4.09,3.22 9.71,0.13 14.12,2.61 -1.1,0.87 -2.08,2.19 -3.66,1.94 -9.32,0.05 -18.64,-0.04 -27.96,0.01 -0.48,-1.01 -0.95,-2.02 -1.4,-3.02 z"
     id="path3661"
     inkscape:connector-curvature="0"
     style="fill:#0b0b0b" />
  <path
     d="m 103.20985,572.93089 c 2.63,-0.44 5.26,-0.93 7.94,-0.97 0.79,0.99 1.65,1.95 2.35,3.02 -4.18,6.91 -5.99,14.98 -10.69,21.59 -1.23,6.3 -4.12,12.01 -6.74,17.8 9.59,-1.77 17.48,-8.07 26.7,-10.93 3.68,-1.06 6.91,-3.21 10.49,-4.52 3.04,-1.14 5.81,-3.29 9.22,-2.97 -0.2,1.8 0.28,3.84 -0.64,5.49 -2.38,2.36 -5.92,2.71 -8.75,4.32 -4.37,1.95 -8.42,4.66 -13.05,5.98 -2.95,0.84 -5.53,2.59 -8.46,3.48 -6.5,1.71 -12.12,5.48 -18.37,7.85 -3.26,0.82 -5.21,-3.08 -4.74,-5.79 1.23,-3.1 2.86,-6.03 3.94,-9.19 2.52,-7.12 6.6,-13.54 9.59,-20.45 0.54,-3.1 1.92,-5.92 3.51,-8.6 -8.34,0.15 -16.68,-0.11 -25,0.14 -4.51,1.33 -9.22,0.82 -13.86,0.9 -1.48,-1.46 -3.73,-4.38 -1.04,-5.86 3.27,-0.21 6.55,-0.12 9.79,-0.67 2.3,0.26 4.6,0.78 6.92,0.43 6.86,-1.46 13.94,-0.57 20.89,-1.05 z"
     id="path3663"
     inkscape:connector-curvature="0"
     style="fill:#0b0b0b" />
  <path
     d="m 627.37985,574.08089 c 5.71,0.13 11.51,-0.56 17.11,0.9 9.96,0.29 19.95,-0.09 29.92,0.19 7.5,1.77 15.28,0.51 22.9,0.96 0.06,0.66 0.16,1.99 0.21,2.65 -3.32,0.85 -6.87,1.6 -9.6,3.8 -1.62,2.02 -3.92,3.41 -5.29,5.64 -2.42,3.15 -3.44,7.05 -4.25,10.86 -1,3.49 0.51,7.08 1.72,10.33 0.66,2.16 2.73,3.27 4.36,4.64 2.45,2.68 4.87,5.44 6.42,8.77 0.32,0.03 0.95,0.09 1.26,0.12 2.07,-2.65 3.24,-6.16 6.26,-7.93 4.73,-3.15 7.91,-8.35 9.05,-13.86 -1,-2.74 -2.6,-5.21 -4.51,-7.4 -1.17,3.94 -1.17,8.54 -4.17,11.66 -1.23,1.18 -1.81,3.27 -3.51,3.79 -4.29,0.05 -7.35,-3.14 -10.69,-5.31 -0.32,-2.89 -1.55,-5.68 -1.15,-8.61 1.39,-3.46 3.1,-6.85 5.44,-9.77 2.45,-1.26 4.54,-3.77 7.52,-3.48 2.31,0.11 5.03,-0.61 6.87,1.22 3.62,2.98 9,4.61 10.29,9.64 1.19,4.93 2.24,10.03 1.83,15.14 -1.55,8.62 -7.16,15.74 -13.1,21.89 -2.01,3.15 -4.38,6.36 -4.8,10.2 -0.13,2.3 -0.13,4.61 -0.01,6.92 0.39,4.17 3.11,7.58 4.32,11.5 -6.04,-3.64 -12.74,-7.01 -16.76,-13.1 -1.31,-2.77 -1.65,-5.86 -1.84,-8.88 -0.13,-3.3 -1.4,-6.64 -0.24,-9.89 0.41,-1.13 -0.39,-2.2 -0.58,-3.26 -5.73,-1.78 -10.23,-6.17 -12.92,-11.42 -1.37,-5.17 -1.92,-10.57 -2.09,-15.91 -5.61,0.88 -10.99,-1.84 -16.54,-0.62 -0.38,4.37 -1.51,8.66 -3.45,12.6 -2.42,3.33 -6.05,5.48 -8.35,8.9 -2.67,0.74 -4.53,-2.22 -6.81,-3.17 1.85,-1.88 3.64,-3.87 5.96,-5.19 0.44,-3.86 2.8,-7.42 2.16,-11.39 -0.59,-4.28 -1.66,-8.51 -3.71,-12.33 -2.44,-3.12 -5.69,-5.48 -9.2,-7.25 -0.02,-1.19 -0.03,-2.37 -0.03,-3.55 z"
     id="path3665"
     inkscape:connector-curvature="0"
     style="fill:#0b0b0b" />
  <path
     d="m 560.08985,581.31089 c 1.8,-2.15 3.6,-4.31 5.38,-6.48 2.99,1.44 4.51,5.17 7.29,7.19 -4.23,-0.06 -8.56,0.53 -12.67,-0.71 z"
     id="path3667"
     inkscape:connector-curvature="0"
     style="fill:#fbfbfb" />
  <path
     d="m 606.79985,581.48089 c 5.58,-3.61 13.18,-4.38 18.93,-0.72 2.61,3.2 4.6,6.88 6.62,10.48 0.4,5.51 -0.5,11.98 -5.1,15.64 -3.36,4.46 -9.27,1.49 -13.87,2.2 -2.74,-3.96 -2.77,-9.24 0.37,-12.97 3.31,-0.47 6.63,-0.15 9.95,0 -0.86,-3.53 -4.2,-6.92 -8.08,-5.93 -3.49,0.95 -7.49,2.62 -8.95,6.2 -1.02,2.07 -1.8,4.28 -2.2,6.56 1.52,4.89 4.24,9.29 5.97,14.11 3.58,6.42 4.47,13.82 4,21.05 2.03,-1.56 4.52,-2.71 5.91,-4.96 1.43,-2.24 2.92,-4.44 4.78,-6.35 2.3,-2.34 2.46,-6.02 4.78,-8.3 4.27,9.84 -0.89,20.96 -8.3,27.72 -3.14,3.33 -6.89,6.06 -11.05,7.98 -7.65,3.25 -15.46,6.23 -23.6,8.03 0.21,-0.63 0.64,-1.89 0.86,-2.52 4.11,-3.27 7.56,-7.24 11.15,-11.05 1.56,-3.03 3.52,-5.81 5.34,-8.68 0.38,-7.78 0.67,-16.13 -3.93,-22.87 -3.71,-4.87 -5.73,-10.91 -4.99,-17.05 -1.21,-8.2 5.77,-13.93 11.41,-18.57 z"
     id="path3669"
     inkscape:connector-curvature="0"
     style="fill:#0b0b0b" />
  <path
     d="m 317.70985,581.30089 c 0.56,0.56 0.56,0.56 0,0 z"
     id="path3671"
     inkscape:connector-curvature="0"
     style="fill:#868686" />
  <path
     d="m 557.68985,601.08089 c 6.45,0.98 13.15,-2.98 19.3,0.16 -1.06,0.89 -2.04,2.14 -3.6,1.84 -4.56,-0.2 -9.07,0.1 -13.53,1.07 0.07,4.52 -1,9.07 -0.1,13.62 6.2,0.57 12.45,0.21 18.67,0.31 1.78,0.11 3.42,-0.67 5.1,-1.17 0.39,1.09 0.79,2.19 1.19,3.3 -3.29,1.33 -6.87,0.77 -10.32,0.87 -5.55,-0.1 -11.12,0.19 -16.67,-0.11 -3.71,-3.53 0.73,-9.09 -0.95,-13.29 -0.94,-2.23 0.55,-4.42 0.91,-6.6 z"
     id="path3683"
     inkscape:connector-curvature="0"
     style="fill:#0b0b0b" />
  <path
     d="m 137.78985,621.43089 c 6.46,-1.36 13.47,0.54 18.54,4.74 4.49,3.13 6.72,8.29 9,13.08 0.16,4.88 0.15,9.78 0,14.67 -1.92,3.9 -3.69,8.13 -7.21,10.91 -2.9,2.22 -5.68,4.91 -9.4,5.66 -3.08,0.6 -6.18,1.19 -9.28,1.6 -3.44,-0.58 -6.72,-1.78 -9.92,-3.12 -8.35,-5.04 -14.29,-14.72 -12.99,-24.69 2.19,-10.62 9.78,-21.47 21.26,-22.85 z"
     id="path3685"
     inkscape:connector-curvature="0"
     style="fill:#0b0b0b" />
  <path
     d="m 140.81985,626.43089 c 3.19,-0.91 6.2,1.27 9.23,2 3.2,2.79 6.42,5.74 8.59,9.45 3.65,7.04 2.42,16.45 -3.46,21.94 -2.82,3.47 -7.1,5.34 -11.51,5.55 -2.97,1.17 -5.96,0.17 -8.86,-0.67 -7.06,-1.33 -10.73,-8.88 -11.69,-15.37 -2.05,-6.68 1.75,-13.51 6.53,-18.02 2.76,-3.31 7.16,-4.15 11.17,-4.88 z"
     id="path3687"
     inkscape:connector-curvature="0"
     style="fill:#fbfbfb" />
  <path
     d="m 128.18985,637.17089 c 1.21,-0.43 2.59,-1.79 3.89,-0.85 3.51,1.64 5.83,4.89 8.61,7.47 3.68,4.03 8.23,7.35 10.98,12.17 -0.43,0.64 -1.3,1.91 -1.73,2.55 -8.96,-3.37 -13.34,-13.01 -21.46,-17.66 -0.09,-1.24 -0.19,-2.46 -0.29,-3.68 z"
     id="path3689"
     inkscape:connector-curvature="0"
     style="fill:#0b0b0b" />
  <path
     d="m 175.41985,645.91089 c 2.94,2.04 5.9,4.11 8.28,6.82 3.64,4.06 7.85,7.55 11.62,11.49 2.04,1.42 3.78,3.19 5.07,5.34 -5.13,6.66 -11.27,12.49 -15.96,19.53 -2.62,4.29 -6.3,7.79 -8.98,12.04 -1.34,2.48 -2.91,4.82 -4.4,7.21 -3.81,-0.06 -5.08,-4.19 -7.49,-6.39 -6.7,-5.01 -13.34,-10.17 -19.07,-16.28 -0.03,-1.37 0.52,-2.65 0.83,-3.94 3.72,1.01 6.24,3.99 9.18,6.26 2.55,3.17 6.6,4.73 8.83,8.19 1.95,1.57 3.92,3.11 5.65,4.93 4.85,-4.11 7.61,-9.86 11.44,-14.8 -5.97,-4.07 -10.75,-9.63 -16.87,-13.49 -0.1,-1.9 -0.17,-3.8 -0.23,-5.68 1.14,-0.44 2.43,-1.8 3.67,-0.8 2.24,3.11 5.5,5.24 7.88,8.24 2.25,3.15 5.87,4.83 8.4,7.72 1.24,-0.86 2.85,-1.32 3.72,-2.63 2.36,-3.48 5.18,-6.63 7.46,-10.16 -4.34,-3.82 -7.96,-8.4 -12.46,-12.03 -3.11,-2.59 -7.5,-4.69 -7.62,-9.29 0.26,-0.57 0.79,-1.71 1.05,-2.28 z"
     id="path3691"
     inkscape:connector-curvature="0"
     style="fill:#0b0b0b" />
  <path
     d="m 249.45985,663.01089 c -0.05,-1.81 1.45,-4.39 3.53,-3.5 4.18,1.1 8.56,0.07 12.76,1.03 2.48,0.48 4.98,0.2 7.45,-0.23 6.29,1.47 12.91,0.91 19.17,-0.45 0.45,1.22 1.52,2.52 0.69,3.86 -1.72,5.44 -6.16,9.16 -10.61,12.36 -2.99,1.52 -6.47,1.88 -9.31,3.77 -6.34,3.75 -14.46,1.57 -20.77,5.22 -2.72,-2.8 -1.58,-6.84 -2.78,-10.23 -0.37,-3.93 -0.21,-7.9 -0.13,-11.83 z"
     id="path3693"
     inkscape:connector-curvature="0"
     style="fill:#0b0b0b" />
  <path
     d="m 345.67985,661.22089 c 9.15,-0.83 18.36,0.44 27.51,-0.37 2.48,-1.14 5.03,-0.63 7.41,0.51 0.09,3.81 -1.7,7.47 -0.83,11.29 -0.72,6.36 -0.22,12.79 -0.35,19.18 -1.92,-0.61 -3.93,-0.83 -5.93,-0.75 -7.75,0.07 -15.51,-0.16 -23.25,0.15 -0.07,-3.77 0.4,-7.48 1.17,-11.15 -1.1,-4.71 -2.7,-9.39 -5.84,-13.15 -1.49,-1.51 -2.02,-4.53 0.11,-5.71 z"
     id="path3695"
     inkscape:connector-curvature="0"
     style="fill:#0b0b0b" />
  <path
     d="m 323.72985,662.11089 c 1.49,0.98 3.67,1.55 3.99,3.61 1.02,3.86 2.12,7.72 3.99,11.28 -1.63,0.02 -3.24,0.04 -4.86,0.04 -2.04,-4.1 -3.59,-8.42 -5.17,-12.71 0.69,-0.74 1.37,-1.48 2.05,-2.22 z"
     id="path3697"
     inkscape:connector-curvature="0"
     style="fill:#fbfbfb" />
  <path
     d="m 648.40985,663.08089 c 5.76,-0.07 11.58,0.38 17.26,-0.85 8.28,-0.05 16.58,-0.23 24.88,-0.12 -0.06,0.7 -0.17,2.1 -0.23,2.81 -6.31,4.71 -11.75,10.41 -17.19,16.08 -8.9,0.48 -17.93,-0.78 -26.7,1.07 -10.01,0.06 -20.02,-0.06 -30.03,0.05 -2.06,-0.01 -4,0.76 -5.97,1.22 -0.04,4.6 -0.29,9.24 0.82,13.74 -0.24,8 -1.99,16.15 0.06,24.08 -0.02,3.05 0.73,6.49 -0.54,9.32 -2.85,2.19 -6.12,3.78 -8.95,6.02 -3.59,2.79 -7.99,4.11 -12.12,5.83 -2.39,0.74 -2.82,3.96 -5.51,4.11 0.38,-2.45 1.34,-4.81 1.22,-7.32 0.02,-16.04 -0.04,-32.08 0.03,-48.11 1.09,-7.9 1.54,-16 0.4,-23.92 0.19,-1.39 0.52,-2.75 0.79,-4.12 5.58,0.11 11.15,0.89 16.7,0.12 15.03,-0.03 30.05,0 45.08,-0.01 z"
     id="path3699"
     inkscape:connector-curvature="0"
     style="fill:#0b0b0b" />
  <path
     d="m 315.69985,665.31089 c 0.56,0.56 0.56,0.56 0,0 z"
     id="path3701"
     inkscape:connector-curvature="0"
     style="fill:#868686" />
  <path
     d="m 180.60985,684.28089 c 0.66,0.66 0.66,0.66 0,0 z"
     id="path3703"
     inkscape:connector-curvature="0"
     style="fill:#fbfbfb" />
  <path
     d="m 637.33985,690.99089 c 7.41,-2.17 15.34,0.45 22.7,-2.05 0.43,1 0.87,2 1.33,3.01 -5.8,5.28 -12.52,9.45 -18.27,14.81 -4.89,3.36 -9.44,7.19 -14.02,10.97 -1.03,1.06 -2.49,1.34 -3.83,1.76 0.68,-5.12 1.09,-10.26 1.13,-15.42 -0.3,-3.92 -1.36,-7.8 -0.95,-11.75 3.23,-2.63 8.04,-0.54 11.91,-1.33 z"
     id="path3705"
     inkscape:connector-curvature="0"
     style="fill:#0b0b0b" />
  <path
     d="m 237.40985,699.05089 c 6.33,-0.05 12.65,0.52 18.97,0.41 10.62,1.19 21.35,0.36 32.03,0.62 15.65,0.07 31.31,-0.14 46.96,0.1 5.29,1.42 10.72,-0.23 16.02,0.85 17.01,0.11 34.02,0.03 51.03,0.04 1.39,0.08 2.71,-0.36 3.99,-0.84 0.04,0.7 0.14,2.12 0.19,2.83 13.52,0.18 27.06,-0.29 40.57,0.32 3.44,0.92 7.01,0.74 10.53,0.41 1.5,-0.15 3.73,0.41 3.63,2.34 0.21,3.64 0.25,7.33 -0.44,10.94 0.75,3.37 0.61,6.8 -0.37,10.11 -0.09,4.29 -0.56,8.71 0.63,12.9 -4.68,0.17 -9.47,-0.55 -14.02,0.82 -2.31,0.66 -4.56,-0.4 -6.82,-0.72 -3.21,-0.31 -6.47,0.18 -9.66,-0.31 -6.03,-1.84 -12.45,0.14 -18.54,-1.34 -2.18,-0.53 -4.44,-0.46 -6.67,-0.48 -0.03,-1.56 -0.11,-3.11 -0.24,-4.64 -0.44,1.21 -0.82,2.45 -1.14,3.72 -12.53,-0.19 -25.07,0.11 -37.59,-0.14 -2.62,-0.84 -5.22,-0.83 -7.85,-0.09 -3.3,-1.12 -6.8,-0.79 -10.21,-0.82 -12.36,0.01 -24.71,-0.02 -37.06,0.02 -3.43,0.25 -6.68,-1.43 -10.11,-0.79 -5.57,-0.22 -11.19,-0.59 -16.71,0.41 -2.39,0.51 -4.67,-0.8 -7.07,-0.63 -13,-0.04 -26,0.02 -39,-0.01 -1.67,0.3 -2.02,-1.86 -2.04,-3.03 0.01,-5 -0.11,-9.99 0.06,-14.98 1.57,-5.89 0.71,-12.01 0.93,-18.02 z"
     id="path3707"
     inkscape:connector-curvature="0"
     style="fill:#0b0b0b" />
  <path
     d="m 310.68985,703.26089 c 0.57,0.57 0.57,0.57 0,0 z"
     id="path3709"
     inkscape:connector-curvature="0"
     style="fill:#868686" />
  <path
     d="m 293.72985,704.32089 c 0.57,0.56 0.57,0.56 0,0 z"
     id="path3711"
     inkscape:connector-curvature="0"
     style="fill:#868686" />
  <path
     d="m 512.33985,705.09089 c 4.38,-1.03 8.92,0.36 12.88,2.31 0.8,2.17 2.28,4.2 2.18,6.62 0.11,5.97 -0.15,11.94 0.12,17.91 0.78,2.8 2.02,5.45 2.8,8.26 -0.26,1.55 -0.76,3.06 -1.08,4.62 -4.12,1.05 -8.32,3.48 -12.53,1.31 -2.27,3.95 -6.26,7.2 -11.01,7.14 -0.72,-1.16 -1.4,-2.32 -2.09,-3.47 -3.39,2.96 -8.86,4.41 -12.95,2.01 -3.29,-1.95 -6.75,1.06 -10.23,0.31 -2.84,0.33 -5.08,-3.08 -3.74,-5.54 1.11,-1.6 1.96,-3.78 4.13,-4.1 4.25,-0.56 7.02,-4.57 11.32,-4.95 2.72,0.72 4.84,2.45 6.42,4.75 4.3,-3.5 10.29,-2.58 14.9,-0.17 2.93,-1.56 5.88,-3.1 8.95,-4.38 0,-0.6 0.01,-1.82 0.01,-2.42 -6.98,-2.76 -14.62,-0.26 -21.66,0.97 -1.22,-2.92 -3.04,-5.8 -2.33,-9.1 1.01,-5.45 3.93,-10.38 7.47,-14.56 1.63,-2.92 4.02,-5.26 6.44,-7.52 z"
     id="path3713"
     inkscape:connector-curvature="0"
     style="fill:#0b0b0b" />
  <path
     d="m 245.68985,707.22089 c 0.58,0.57 0.58,0.57 0,0 z"
     id="path3717"
     inkscape:connector-curvature="0"
     style="fill:#868686" />
  <path
     d="m 353.66985,711.30089 c 0.55,0.54 0.55,0.54 0,0 z"
     id="path3721"
     inkscape:connector-curvature="0"
     style="fill:#868686" />
  <path
     d="m 255.61985,715.24089 c 0.62,0.62 0.62,0.62 0,0 z"
     id="path3723"
     inkscape:connector-curvature="0"
     style="fill:#fbfbfb" />
  <path
     d="m 273.71985,717.32089 c 0.55,0.54 0.55,0.54 0,0 z"
     id="path3725"
     inkscape:connector-curvature="0"
     style="fill:#868686" />
  <path
     d="m 227.31643,751.42543 c 104.91143,3.73385 221.41589,6.95857 316.72342,11.72546 C 372.29293,820.4027 314.59731,780.7022 227.31643,751.42543 z"
     id="path3729"
     inkscape:connector-curvature="0"
     style="fill:#0b0b0b"
     sodipodi:nodetypes="ccc" />
  <path
     d="m 412.57985,773.32089 c 0.56,0.54 0.56,0.54 0,0 z"
     id="path3731"
     inkscape:connector-curvature="0"
     style="fill:#868686" />
</svg>
